<svg xmlns="http://www.w3.org/2000/svg" xmlns:xlink="http://www.w3.org/1999/xlink" viewBox="0 0 50.87 50.87"><defs><style>.cls-1{fill:none;}.cls-2{clip-path:url(#clip-path);}.cls-3{fill:#69c9ca;}.cls-3,.cls-4,.cls-5,.cls-6,.cls-7,.cls-8{fill-rule:evenodd;}.cls-4{fill:#f2efdc;}.cls-5{fill:#f1f6f6;}.cls-6{fill:#f2f6f6;}.cls-7{fill:#00b0b8;}.cls-8{fill:#07959c;}</style><clipPath id="clip-path" transform="translate(0 0)"><rect class="cls-1" width="50.87" height="50.87"/></clipPath></defs><title>Asset 16</title><g id="Layer_2" data-name="Layer 2"><g id="Layer_1-2" data-name="Layer 1"><g id="Artwork_8" data-name="Artwork 8"><g class="cls-2"><g class="cls-2"><path class="cls-3" d="M25.44,50.87A25.44,25.44,0,1,0,0,25.43,25.48,25.48,0,0,0,25.44,50.87" transform="translate(0 0)"/><polygon class="cls-4" points="18.16 21.37 29.5 32.71 23.08 41.94 8.93 27.79 18.16 21.37"/><polygon class="cls-5" points="15.45 34.31 22.99 27.88 16.56 35.42 15.45 34.31"/><polygon class="cls-6" points="11.47 30.33 18.57 25.57 12.42 31.28 11.47 30.33"/><polygon class="cls-6" points="20.27 39.14 25.04 32.04 19.32 38.19 20.27 39.14"/><path class="cls-7" d="M41.7,9.17h0a.85.85,0,0,1,0,1.18L26.93,25.12l.44.43a.58.58,0,0,1,0,.81l-1.18,1.18L29.64,31a1.15,1.15,0,0,1,0,1.61,1.16,1.16,0,0,1-1.62,0l-9.75-9.75a1.15,1.15,0,1,1,1.62-1.62l3.44,3.45,1.18-1.18a.58.58,0,0,1,.81,0l.43.44L40.52,9.17a.85.85,0,0,1,1.18,0" transform="translate(0 0)"/><path class="cls-8" d="M41.7,9.17a.85.85,0,0,1,0,1.18L26.93,25.12l.44.43a.58.58,0,0,1,0,.81l-1.18,1.18L29.64,31a1.15,1.15,0,0,1,0,1.61,1.16,1.16,0,0,1-1.62,0l-4.87-4.87Z" transform="translate(0 0)"/></g></g></g></g></g></svg>