<svg xmlns="http://www.w3.org/2000/svg" xmlns:xlink="http://www.w3.org/1999/xlink" viewBox="0 0 52.57 52.57"><defs><style>.cls-1{fill:none;}.cls-2{clip-path:url(#clip-path);}.cls-3{fill:#69c9ca;}.cls-3,.cls-4,.cls-5,.cls-6,.cls-7{fill-rule:evenodd;}.cls-4{fill:#f2efdc;}.cls-5{fill:#00b0b8;}.cls-6{fill:#07959c;}.cls-7{fill:#f2f6f6;}</style><clipPath id="clip-path" transform="translate(0 0)"><rect class="cls-1" width="52.57" height="52.57"/></clipPath></defs><title>Asset 14</title><g id="Layer_2" data-name="Layer 2"><g id="Layer_1-2" data-name="Layer 1"><g id="Artwork_9" data-name="Artwork 9"><g class="cls-2"><g class="cls-2"><path class="cls-3" d="M26.29,52.57A26.29,26.29,0,1,0,0,26.28,26.34,26.34,0,0,0,26.29,52.57" transform="translate(0 0)"/><path class="cls-4" d="M36.84,13.13l5.33,6.6a2.2,2.2,0,0,1-.33,3.09L30.2,32.22a2.2,2.2,0,0,1-3.09-.33l-5.33-6.6a2.22,2.22,0,0,1,.33-3.1L33.75,12.8a2.2,2.2,0,0,1,3.09.33" transform="translate(0 0)"/><path class="cls-5" d="M30.68,25.78l-.17-.19L36.28,21c1.33-1.06-.35-3.25-1.78-2.11l-5.81,4.64-.12-.13L34.07,19a1.38,1.38,0,0,0-1.79-2.11L26.75,21.3l-.18-.15L30.62,18c.82-.64.05-2.35-1.18-1.38-1.75,1.41-4.67,3.5-6.2,4.89-2.06,1.89-2.83,2.91-5.09,4.94a3.66,3.66,0,0,0-.75.86l-.77.87L9.91,33.1l7.16,7.16,4.06-3.94L22.32,36a9.91,9.91,0,0,0,2.19-.71l3.73-1.28,4.5-1.41A1.31,1.31,0,0,0,33.58,31l0-.1A1.33,1.33,0,0,0,31.88,30l-2.49.82,1.41-1.18a2,2,0,0,0,.41-.45l6-5.06a1.38,1.38,0,0,0-1.78-2.11Z" transform="translate(0 0)"/><path class="cls-6" d="M30.68,25.78l-.17-.19L36.28,21a1.3,1.3,0,0,0,.06-2l-14,11-8.67,6.81,3.42,3.42,4.06-3.94L22.32,36a9.91,9.91,0,0,0,2.19-.71l3.73-1.28,4.5-1.41A1.31,1.31,0,0,0,33.58,31l0-.1A1.33,1.33,0,0,0,31.88,30l-2.49.82,1.41-1.18a2,2,0,0,0,.41-.45l6-5.06a1.33,1.33,0,0,0,.16-1.87l-.07-.08a1.33,1.33,0,0,0-1.87-.16Z" transform="translate(0 0)"/><path class="cls-7" d="M36,13.59a.65.65,0,1,1-.93.92.64.64,0,0,1,0-.92.65.65,0,0,1,.93,0" transform="translate(0 0)"/><path class="cls-7" d="M37.29,16.21a.53.53,0,1,1-.75,0,.54.54,0,0,1,.75,0" transform="translate(0 0)"/><path class="cls-7" d="M33.16,15.06a.7.7,0,0,1-1,1,.7.7,0,1,1,1-1" transform="translate(0 0)"/><path class="cls-7" d="M39.7,17.89a.71.71,0,0,1,0,1,.69.69,0,0,1-1,0,.7.7,0,1,1,1-1" transform="translate(0 0)"/><path class="cls-7" d="M39.34,21a.65.65,0,1,1-.93.92.64.64,0,0,1,0-.92.65.65,0,0,1,.93,0" transform="translate(0 0)"/><path class="cls-7" d="M41.82,20.72a.53.53,0,1,1-.75,0,.54.54,0,0,1,.75,0" transform="translate(0 0)"/><path class="cls-7" d="M38.67,24a.54.54,0,1,1-.76,0,.54.54,0,0,1,.76,0" transform="translate(0 0)"/></g></g></g></g></g></svg>