<svg xmlns="http://www.w3.org/2000/svg" viewBox="0 0 50.02 57.27"><defs><style>.cls-1{fill:#f1f6f6;}.cls-2{fill:#16c8d2;}</style></defs><title>Asset 12</title><g id="Layer_2" data-name="Layer 2"><g id="Layer_1-2" data-name="Layer 1"><g id="Group_284" data-name="Group 284"><g id="Group_283" data-name="Group 283"><path id="Path_813" data-name="Path 813" class="cls-1" d="M0,28.65Q0,14.75,0,.82C0,.25,0,0,.74,0Q25,0,49.28,0c.57,0,.74.1.74.72q0,27.93,0,55.88c0,.61-.15.67-.7.67q-24.31,0-48.63,0C0,57.27,0,57,0,56.49Q0,42.58,0,28.65Z"/><g id="Group_285" data-name="Group 285"><path id="Path_814" data-name="Path 814" class="cls-2" d="M16.12,34.49a21.47,21.47,0,0,1-2.78-.09c-3.27-.48-5.4-2.48-5.61-5.75-.39-6,.11-11.86,2.59-17.43a19.73,19.73,0,0,1,4.52-6.43,4,4,0,0,1,3-1.38.61.61,0,0,0,.61-.32C20.28.53,23,.08,25.75.32c4.83.42,8.21,3.32,11,7s3.95,7.76,4.62,12.13a47.92,47.92,0,0,1,.38,8.38c-.11,4.1-2.59,6.58-6.71,6.71H34a5.3,5.3,0,0,0,3,2.73,44.11,44.11,0,0,1,6.39,2.69,2,2,0,0,1,1.07,1.14c.8,2,1.6,4,2.46,6a.9.9,0,0,1-.29,1.15,30.18,30.18,0,0,1-17.09,8.49c-10,1.39-18.62-1.45-26-8.28a1.27,1.27,0,0,1-.37-1.7C4,44.87,4.77,43,5.51,41.17a2.34,2.34,0,0,1,1.28-1.32,50.68,50.68,0,0,1,7-2.92C15.05,36.53,15.26,35.35,16.12,34.49Z"/></g><path id="Path_815" data-name="Path 815" class="cls-1" d="M15.4,18.07A15.22,15.22,0,0,1,18.83,10c.82-.94.84-1,1.66-.1A10.63,10.63,0,0,0,27.36,13,9.32,9.32,0,0,1,33,15.61a7.7,7.7,0,0,1,1.51,2.27,4.26,4.26,0,0,1,.57-.48,1,1,0,0,1,1.48,0,1,1,0,0,1,.24.4c.8,1.62-.25,5.23-1.85,6.05a1.55,1.55,0,0,0-.88,1.2,14.39,14.39,0,0,1-2.52,5.17C27.93,35,22.15,35,18.47,30.3a14.44,14.44,0,0,1-2.64-5.46c-.07-.31-.07-.65-.47-.74a3.14,3.14,0,0,1-2.1-2.16,6.76,6.76,0,0,1-.52-3.26c.06-.61.19-1.24.84-1.49s1.09.13,1.49.59l.32.29Z"/><path id="Path_816" data-name="Path 816" class="cls-1" d="M18.83,31.31a2.49,2.49,0,0,0,.27.51,10.69,10.69,0,0,0,8,3.47,19.7,19.7,0,0,0,2.77,0c.59,0,.78.2.88.71a13.37,13.37,0,0,1-1.59,9.56c-1.81,2.92-3.78,5.49-5.7,8.28a7.14,7.14,0,0,1-.94-1.74,82.4,82.4,0,0,1-3.81-8.79,17.28,17.28,0,0,1-.23-11c.08-.25.11-.5.17-.74Z"/></g></g></g></g></svg>