<svg xmlns="http://www.w3.org/2000/svg" viewBox="0 0 235.03 237"><defs><style>.cls-1{fill:#75dce3;}.cls-2{fill:#16c8d2;}</style></defs><title>Asset 1</title><g id="Layer_2" data-name="Layer 2"><g id="Layer_1-2" data-name="Layer 1"><g id="Group_61" data-name="Group 61"><g id="Group_58" data-name="Group 58"><g id="Group_57" data-name="Group 57"><path id="Path_205" data-name="Path 205" class="cls-1" d="M129.08,234.19h0a26.92,26.92,0,0,1-36-12L2.81,41.46a26.92,26.92,0,0,1,12-36h0a26.92,26.92,0,0,1,36,12L141.1,198.18A26.92,26.92,0,0,1,129.08,234.19Z"/></g></g><g id="Group_60" data-name="Group 60"><g id="Group_59" data-name="Group 59"><path id="Path_206" data-name="Path 206" class="cls-2" d="M219.59,2.51h0A26.93,26.93,0,0,0,183.9,15.44l-85.66,183a26.92,26.92,0,0,0,12.94,35.68h0a26.92,26.92,0,0,0,35.69-12.93L232.52,38.2A26.93,26.93,0,0,0,219.59,2.51Z"/></g></g></g></g></g></svg>