<svg xmlns="http://www.w3.org/2000/svg" viewBox="0 0 53.46 61.21"><defs><style>.cls-1{fill:#16c8d2;}.cls-2{fill:#f1f6f6;}.cls-3{fill:#cfedea;}</style></defs><title>Asset 11</title><g id="Layer_2" data-name="Layer 2"><g id="Layer_1-2" data-name="Layer 1"><g id="Artwork_7" data-name="Artwork 7"><g id="Artwork_7-2" data-name="Artwork 7-2"><path id="Path_803" data-name="Path 803" class="cls-1" d="M26.32,0H30c1.59.29,3.22.27,4.67,1.16,4.43,2.69,7,6.51,7.22,11.79a21.89,21.89,0,0,1-.28,4.85,3.84,3.84,0,0,0,0,1.22c.24,2.86-.23,5.45-2.78,7.2a1.73,1.73,0,0,0-.65,1,18.72,18.72,0,0,1-2.28,5c-.59.91-.53,1.16.32,1.87a18.87,18.87,0,0,1,3.27,3.75A3,3,0,0,0,41,39c2.88,1.06,5.57,2.49,8.36,3.78a2.42,2.42,0,0,1,1.33,1.44c.47,1.27,1.06,2.51,1.45,3.82a1.93,1.93,0,0,1-.43,2A32.47,32.47,0,0,1,34.54,60.58a28.25,28.25,0,0,1-6.16.48H25.12C16.8,61.23,9.91,58,4,52.27q-1.11-1.05-2.16-2.16a1.72,1.72,0,0,1-.51-1.93,33.9,33.9,0,0,1,1.77-4.33,2.7,2.7,0,0,1,1.3-1.22c2.78-1.2,5.49-2.55,8.32-3.61a2.44,2.44,0,0,0,1.17-.93,15.74,15.74,0,0,1,3.85-4.16A.91.91,0,0,0,18,32.46a18.52,18.52,0,0,1-2.44-5.14,2,2,0,0,0-.92-1.14,6.71,6.71,0,0,1-2.2-8.36,2,2,0,0,0,.16-1.47,14.53,14.53,0,0,1-.12-5.26A11.27,11.27,0,0,1,18,3.26c.64-.4,1.25-.83,1.86-1.26A12.25,12.25,0,0,1,26.32,0Z"/><path id="Path_804" data-name="Path 804" class="cls-2" d="M26.32,0a22.16,22.16,0,0,0-7.91,3.51c-4.71,3.18-6.5,7.4-5.26,13,.14.67.39,1.3-.41,1.75a1.15,1.15,0,0,0-.22.35S13,25,15.23,25.87a1,1,0,0,1,.67.76,16.56,16.56,0,0,0,3,6.28c.37.47.23.65-.18.94a14.93,14.93,0,0,0-4.59,4.83,1.86,1.86,0,0,1-1.1.84c-3,1-5.81,2.46-8.68,3.71a1.59,1.59,0,0,0-.84.83C2.85,45.51,2.3,47,1.75,48.51A1,1,0,0,0,2,49.61,32,32,0,0,0,22.43,60.78c.79.12,1.61.16,2.42.24.15,0,.16.1,0,.17H.73c-.61,0-.73-.13-.73-.74Q0,30.6,0,.73C0,.12.12,0,.73,0Z"/><path id="Path_805" data-name="Path 805" class="cls-2" d="M28.57,61A32.27,32.27,0,0,0,51.1,50a2.1,2.1,0,0,0,.45-2.19A7.87,7.87,0,0,0,46,41.72c-2-.64-3.81-1.78-5.81-2.43a1.48,1.48,0,0,1-.84-.69,18.72,18.72,0,0,0-4.16-4.71c-.51-.41-.65-.72-.18-1.31a15.81,15.81,0,0,0,2.73-5.75c.08-.34.08-.73.51-.91C40.41,25,40.9,23,41.19,21a4.25,4.25,0,0,0-.13-2.12,2.22,2.22,0,0,1,0-1.2,16.8,16.8,0,0,0,.18-6.08A13.37,13.37,0,0,0,30.36.18,1.73,1.73,0,0,1,30,0c7.59,0,15.15,0,22.74,0,.61,0,.73.12.73.73q0,29.88,0,59.75c0,.61-.12.73-.73.73H28.57C28.42,61.13,28.42,61.06,28.57,61Z"/><path id="Path_806" data-name="Path 806" class="cls-3" d="M28.57,61v.16H24.9V61Z"/><path id="Path_807" data-name="Path 807" class="cls-2" d="M23.35,36.44c4.2,2.2,7.87,1.61,11.17-1.82a7.29,7.29,0,0,1-.59,5.53c-1.23,2.46-2.51,4.89-3.49,7.46a51.46,51.46,0,0,0-2.3,7.59c-.1.46-.12.91-.82.91s-.71-.48-.79-.94a39.11,39.11,0,0,0-1.29-4.71,12,12,0,0,0-3.14-5.38c-3.28-2.91-4-6.5-2.59-10.54a1.91,1.91,0,0,0-.36-2.1,14.92,14.92,0,0,1-2.82-5.93c-.14-.55-.2-1-1-1s-.85-.39-1.16-.78a7,7,0,0,1-1.49-5.13c0-.6.27-1.35,1-1.31a1.51,1.51,0,0,1,1.39,1.4c.12.8.2,1.61.33,2.43s.28,1.06,1,.94.41-.68.37-1.08a29,29,0,0,0-.41-5.18,1.35,1.35,0,0,1,.06-.49A16.09,16.09,0,0,1,20,9.69c.45-.51.74-.49,1.21,0a11.92,11.92,0,0,0,7.62,3.64c3,.33,5.47,1.11,7.51,3.25a2.76,2.76,0,0,1,.93,2.53,23.72,23.72,0,0,0-.16,3.16c0,.34,0,.71.43.79s.69-.22.81-.61a7.61,7.61,0,0,0,.19-2.73,1.38,1.38,0,0,1,.53-1.25,1,1,0,0,1,1.33.13l.12.18c1,1.69-.37,5.91-2.21,6.63a1.32,1.32,0,0,0-.93,1.12,16.72,16.72,0,0,1-2.84,6c-2.61,3.59-6.1,4.79-10.38,3.9A.88.88,0,0,0,23.35,36.44Z"/></g></g></g></g></svg>