<svg xmlns="http://www.w3.org/2000/svg" viewBox="0 0 55.62 79.06"><defs><style>.cls-1{fill:#a38588;}.cls-2{fill:#ffbe9e;}.cls-3{fill:#9dbdc4;}.cls-4{fill:#0295ad;}.cls-5{fill:#6cb3c4;}.cls-6{fill:#0aa1c4;}.cls-7{fill:#3baac4;}.cls-8{fill:#ffb28d;}.cls-9{fill:#ffccb3;}.cls-10{fill:#ff884d;}.cls-11{fill:#9ff;}.cls-12{fill:#6cc;}.cls-13{fill:#0cc;}</style></defs><title>Asset 7</title><g id="Layer_2" data-name="Layer 2"><g id="Layer_1-2" data-name="Layer 1"><path class="cls-1" d="M28.34,6.54A3.73,3.73,0,0,1,28,3.69a1.94,1.94,0,0,1,1.86-1.22.81.81,0,0,1,.31,1.26C29.56,4.56,28.33,5.53,28.34,6.54Z"/><path class="cls-2" d="M30.1,17.29s-.76-3.29-3.26,3S22.76,30,23.65,32.09s3.29-1.23,3.29-1.23S32.9,23.12,30.1,17.29Z"/><path class="cls-2" d="M43.62,57.29s.72-2.83,1.69-1.67,6.34,10,6.12,11.72-1.6,5.85-1.3,6.85,0,1.17,2,.11,2.07-1.16,2.13-2.17.34-4.32.34-4.32l-.35-2.09A7.2,7.2,0,0,1,53,63.82c-.22-.74-1.87-7.49-2.84-8.93S48,56.51,48,56.51s-.26-18.09-1.21-19.46-2.94-4.5-2.94-4.5l-4.81,1.33s-1.81,5-.9,7.53S42.84,56.51,43.62,57.29Z"/><path class="cls-3" d="M34.36,68.29s-.79.53-.19,1.13,3.49-.17,4.81-.67A1.51,1.51,0,0,0,40,67a7.68,7.68,0,0,1,.42,2c0,.77-.06,1.17-.59,1.48s-2.5-.22-3,0S34.36,72,32.93,71.83a11.3,11.3,0,0,1-3.12-1.17s-.87-.64,3-2.14A3.61,3.61,0,0,1,34.36,68.29Z"/><path class="cls-2" d="M34.86,29.52s-2.17.65-2.61,4.62,1.22,10.57,2.61,13.26.6,3.7,1.21,4.3.61.55.61,3.59V66.57l-3.3,1.53a1.12,1.12,0,0,0-1.39.23c-.68.68-1.65.77-1.65,1.59s2.69.64,3.17.64,1.78-1.19,3.78-1.19,2.55.6,2.88-.45-.51-2,0-4,2.67-7.46,2-9.11a18.37,18.37,0,0,1-1.41-5.76c0-1.53.51-4.3.14-6.91S39.45,28.74,34.86,29.52Z"/><path class="cls-4" d="M43.34,49.37c-1.28-5-2.11-6-2.14-9.65S37.18,28.57,34,31l-.54-.31a11,11,0,0,0-1.62,7c.55,3.84,2.75,11.6,3.28,13.56a45.89,45.89,0,0,1,1.46,6.35l-.29,8.73s.2.9,2,.79a10.29,10.29,0,0,0,3.44-1S44.62,54.35,43.34,49.37Z"/><path class="cls-5" d="M34.36,67.64s-.79.54-.19,1.13,3.49-.17,4.81-.67,1.15-1,1.15-1a2.28,2.28,0,0,1,.29,1.2c0,.76-.06,1.16-.59,1.47s-2.5-.22-3,0-2.46,1.62-3.89,1.41A11.08,11.08,0,0,1,29.81,70s2.1-2.15,3-2.15A5.41,5.41,0,0,0,34.36,67.64Z"/><path class="cls-6" d="M52.73,55.1c-.55-1.94-4.25-4-4.25-4s.41-10.33-.87-14.51-6.5-6.56-9.85-4.63,4.51,24.4,4.51,24.4,6,4,7,6.17a25.08,25.08,0,0,1,1.47,3.57s-.07,1.26,1.74.15a6,6,0,0,0,2.39-3.17Z"/><path class="cls-7" d="M28.83,23.53c-1.26-1.7-2.55-6.15,2.27-9,3.39-2,10-2.69,11.82-.53a15.6,15.6,0,0,1,3,11.47c-.69,4-.12,2.75,1.13,6.58s.53,4.64.53,4.64S45.27,40,41.76,40s-10.2-2.44-10.2-2.44-1-1.54-.18-4.75C32.33,29.21,30.16,25.31,28.83,23.53Z"/><path class="cls-8" d="M31.86,13.86a5.66,5.66,0,0,1,.3,1.51,20.49,20.49,0,0,0,1,4.11c.82,1.35,3.26-5.05,4.53-6.24.7-.66-1.77-.41-1.85-1.94a4.22,4.22,0,0,0-1-2.51Z"/><path class="cls-9" d="M32,1.47c-.19.07-3.38,1.53-3.89,3.73s.51,3.14.6,3.72-.29.51-.15,1.41.86,1.32.93,1.8.85.72,1,1.63,1.22.75,2.24.4c1.45-.5,4.85-4.15,5.1-6.38S37.7-.56,32,1.47Z"/><path class="cls-1" d="M28.93,3.41s1.74,4,3,5a21.06,21.06,0,0,0,4.81,1.88s-.08,1.39.22,1.67a14.88,14.88,0,0,0,3.52,1.38s-.43-2.4-1.13-2.91A15.52,15.52,0,0,1,37.81,9s3.13-6.24-2-8.38C30.14-1.75,28.93,3.41,28.93,3.41Z"/><path class="cls-10" d="M35,8.63s.49-.79.83-.49a1.35,1.35,0,0,1,.33,1.47c-.2.65-.64,1.43-1.1,1.37s-.6,0-.8-.39a.92.92,0,0,1,0-.77Z"/><path class="cls-9" d="M34.82,8.68s.49-.8.83-.5A1.35,1.35,0,0,1,36,9.65c-.21.66-.65,1.44-1.1,1.38s-.6,0-.8-.4a.92.92,0,0,1,0-.77Z"/><path class="cls-10" d="M35.15,8.92s.09.42.12.6a.81.81,0,0,1-.05.6,1.7,1.7,0,0,1-.21.21,7.19,7.19,0,0,0,.08-1,.92.92,0,0,1,.12-.69c.14-.18.26-.42.41-.17a1.14,1.14,0,0,1,.18.94,1.92,1.92,0,0,1-.5,1,1.4,1.4,0,0,1-.48.23,1.13,1.13,0,0,0,.7-.63c.16-.46.29-1.2.16-1.35s-.15-.17-.18,0,0,.46-.09.36-.1-.36-.19-.27S35.15,8.92,35.15,8.92Z"/><path class="cls-10" d="M35,9.71s0-.4-.1-.4-.1,0-.17.13-.09.17-.2.12-.2-.17-.11,0,.14,0,.3.15.08.31.2.34.09-.25.06-.34Z"/><path class="cls-11" d="M18.69,77.88c-.51-.17-1-.17-1.35-.5a2.12,2.12,0,0,0,.84.84A2.46,2.46,0,0,1,17,77.71c-.17,0-.34,0-.17.17.33.17.5.51.84.68-.51,0-.84-.51-1.35-.51.34.17.34.67.68.84-.34-.17-.68-.67-1.18-.67a1.24,1.24,0,0,1,.17.84c-.34-.34-.17-.84-.51-1a1.47,1.47,0,0,1-.5,1c-.17-.34.16-.67.16-1-.33.34-.67.51-1,.84a1.47,1.47,0,0,1,.51-1c-.51,0-.68.68-1.18.68,0-.34.5-.51.5-.85a2.46,2.46,0,0,1-1.17.51c.16-.17.5-.51.67-.67-.51,0-.84.5-1.35.5.17-.34.84-.34.84-.84a2.56,2.56,0,0,0-1.17.5c.16-.33.5-.5.67-.84-.34.51-1,.34-1.35.68.17-.51.68-.51.84-.85a2.46,2.46,0,0,0-1.17.51c-.17,0-.17,0-.17-.17.17-.34.67-.17.84-.67-.51,0-.84.5-1.35.5.17-.33.68-.33.84-.84-.5.17-.84.34-1.34.51a.55.55,0,0,0,.33-.17c.17-.17.17-.34.51-.51-.51.17-.84.34-1.35.51.17-.51.68-.51.84-.84a2.54,2.54,0,0,0-1.18.5c-.16,0-.16,0-.16-.17.16-.33.67-.17.84-.67a2.6,2.6,0,0,0-1.18.5c-.17,0-.17,0-.17-.16.17-.34.67-.17.84-.68-.5.17-.84.34-1.34.51.17-.34.67-.34.84-.68-.51-.17-.84.34-1.35.34.51,0,.51-.67,1-.67a5,5,0,0,0-1.51.5c.33-.34.67-.5,1-.84-.51,0-1,.5-1.52.5.34-.33.67-.5,1-.84-.5,0-1,.51-1.51.51.33-.34.67-.51,1-.84-.51,0-1,.5-1.52.5.51-.17.67-.5,1-.84-.5.34-1.18.17-1.51.67.33-.33.5-.67,1-.84-.51,0-1,.51-1.52.51a3.52,3.52,0,0,1,1-.68c.17-.17,0-.17-.17-.17-.5.17-.84.34-1.34.51a3.17,3.17,0,0,1,1-.67c.16-.17,0-.17-.17-.17a1.56,1.56,0,0,1-1.18.5c.17-.33.67-.5.84-.84-.34.34-1,.34-1.35.67a2.08,2.08,0,0,1,.85-.84c-.51,0-.85.34-1.35.51.17-.51.84-.34,1-.84-.51.16-1,.16-1.35.5-.17.17-.33,0-.17-.17a3.35,3.35,0,0,0,1-.67l-1.51.5a1.72,1.72,0,0,1,1.18-.67,5,5,0,0,0-1.69.34,2.65,2.65,0,0,0,1.18-.68c-.5.17-.84,0-1.35.34-.16,0-.16-.17-.16-.17.5,0,.84-.33,1.34-.5-.5-.17-1.18.17-1.68.17A3,3,0,0,1,1.68,70C1.18,69.8.5,69.8,0,69.63c.5-.17,1.18.17,1.68.17-.33-.5-.84-.34-1.18-.67.51-.17,1,.33,1.52.33a3.69,3.69,0,0,0-1-.67c.51,0,1,.51,1.52.34-.51,0-.51-.68-1-.68.67-.16.84.51,1.51.51-.34-.34-.67-.51-1-.84.51,0,1,.5,1.52.5-.34-.33-.68-.5-1-.84.5,0,1,.51,1.51.51-.5-.17-.5-.51-.84-.85a2.7,2.7,0,0,0,1.18.68c0-.34-.34-.51-.51-.84.34.33.68.5,1,.84v-1c.34.33.17.67.34,1,.34-.34.34-.68.67-1,0,.33-.33.67-.17,1,.34-.34.68-.51,1-.84a1.46,1.46,0,0,0-.5,1,1.7,1.7,0,0,1,1.18-.68c0,.51-.84.51-.68.84.17.17.51-.16.85-.5a.6.6,0,0,1,.5-.17c-.33.17-.5.67-.84.84.51,0,.84-.5,1.35-.5l-.68.67a2.6,2.6,0,0,0,1.18-.5c0,.5-.84.5-.67.67.33.34.84-.34,1.35-.34-.17.34-.85.34-.85.84A2.45,2.45,0,0,0,10.1,69l-.67.67c.5-.17.84-.33,1.35-.5,0,.5-.85.33-.85.84a2.46,2.46,0,0,0,1.18-.51c.17,0,.17,0,.17.17-.17.17-.5.17-.67.34-.17,0-.17.34-.17.34.5.16.84-.51,1.35-.51-.17.34-.68.34-.85.67.51.17.85-.16,1.18-.33-.33.17-.33.67-.84.67.51-.17,1-.17,1.52-.34-.51,0-.51.68-1,.68a5.28,5.28,0,0,0,1.51-.51c-.34.34-.67.51-1,.84.51,0,1-.5,1.52-.5-.17.5-.85.34-1,.84.5,0,.84-.5,1.34-.5,0,.16-.17.16-.17.33-.16.17-.5.17-.67.34.51.17.84-.34,1.35-.34a.59.59,0,0,0-.34.17c-.17.17-.17.34-.5.51.5-.17.84-.34,1.34-.51,0,.51-.84.34-.84.84a2.49,2.49,0,0,0,1.18-.5c.17,0,.34,0,.17.17a3.28,3.28,0,0,0-1,.67c.5-.17.84-.34,1.35-.51-.17.51-.68.51-.85.85.51,0,.85-.68,1.52-.51-.51,0-.51.67-1,.67a5.25,5.25,0,0,0,1.51-.5c-.33.34-.67.5-1,.84l1.52-.5c-.34.33-.84.33-1,.84.34-.34.84-.34,1.35-.51-.34.34-.68.51-1,.84a5.58,5.58,0,0,1,1.51-.5c-.34.17-.67.5-1,.67.51,0,1-.5,1.52-.33-.51,0-.68.67-1.18.67a6.34,6.34,0,0,0,1.68-.51c-.34.51-.84.34-1.18.85A4.9,4.9,0,0,1,19.87,75c-.34.17-.84.34-1.18.51-.17.16,0,.16.17.16.5-.33.84-.16,1.34-.33-.33.33-.84.33-1.34.5h1.68c-.5,0-1,.34-1.51.17.5.34,1,.17,1.51.34H18.86c.5.17.84.33,1.34.5-.5,0-1-.33-1.51-.17.34.34.84.17,1,.68-.34-.34-.84-.34-1.35-.51,0,.51.84.34.84.84-.5-.16-.84-.5-1.34-.5a.55.55,0,0,1,.33.17c.17.17.17.33.51.5Z"/><path class="cls-11" d="M2.34,68.15a3.07,3.07,0,0,1,1.3.32c-.32-.16-.32-.64-.81-.64.49,0,1,.48,1.46.48-.17-.32-.65-.32-.81-.64s0-.17.16-.17c.32.33.81.33,1,.65,0-.32-.49-.65-.49-1,.33.32.65.49,1,.81a1.48,1.48,0,0,0-.16-.81L5.09,67c.17.32,0,.81.33.81.32.16.32-.49.64-.81,0,.32-.32.65-.16,1,.16-.32.65-.49,1-.81a1.4,1.4,0,0,0-.48,1,1.65,1.65,0,0,1,1.13-.65c-.16.33-.65.33-.65.81A2.47,2.47,0,0,0,8,67.83c-.33.16-.33.64-.65.64.48,0,.81-.48,1.29-.48l-.81.81c.49,0,.81-.49,1.3-.49-.33.16-.33.65-.81.65a5,5,0,0,0,1.46-.49c-.33.33-.65.49-1,.81.49,0,1-.48,1.46-.48-.32.32-.65.48-1,.81.49,0,1-.49,1.46-.49-.49.16-.65.49-1,.81.32-.32,1-.16,1.29-.49-.32.17-.32.65-.81.65a5.21,5.21,0,0,0,1.46-.48c-.33.32-.65.48-1,.81.48,0,1-.49,1.45-.49-.32.32-.65.49-1,.81.49,0,1-.49,1.46-.49-.33.33-.65.49-1,.81a5.14,5.14,0,0,1,1.45-.48c-.48,0-.48.64-1,.64.49,0,.81-.32,1.3-.32-.33.16-.49.49-.81.65.48-.16.81-.33,1.29-.49-.16.49-.65.49-.81.81a2.38,2.38,0,0,0,1.13-.48c.17,0,.17,0,.17.16-.17.32-.65.16-.81.64a2.43,2.43,0,0,0,1.13-.48c.16,0,.16,0,.16.16-.16.32-.65.16-.81.65.49-.16.81-.33,1.3-.49-.33.16-.49.49-.81.65.48-.16.81-.32,1.29-.49-.32.33-.48.65-1,.81.49,0,.81-.32,1.29-.48.17,0,.33,0,.17.16a3.11,3.11,0,0,0-1,.65c.48-.17.8-.33,1.29-.49.16,0,.32,0,.16.16a3.43,3.43,0,0,0-1,.65c.49,0,1-.49,1.46-.49-.49.17-.65.49-1,.81.48-.32,1-.32,1.45-.64-.32.32-.48.64-1,.8.49,0,1-.48,1.46-.48a3.83,3.83,0,0,1-1,.65c-.16.16,0,.16.16.16.48-.16.81-.33,1.29-.49-.32.49-.81.49-1.13.81l1.46-.48c-.17.32-.65.48-1,.64a4.73,4.73,0,0,0,1.45-.32,7.07,7.07,0,0,1-1.13.65,4.61,4.61,0,0,0,1.62-.33c-.49.33-1,.33-1.46.65.49.16,1.13-.16,1.62-.16-.49.32-1,.16-1.46.32.49.33,1,0,1.46.33-.49.16-1.13-.16-1.62-.16.32.32.81.32,1.13.64a4.73,4.73,0,0,0-1.45-.32c.48,0,.48.64,1,.64-.49.17-.81-.48-1.3-.32.33.16.49.49.81.65-.48-.16-1-.16-1.29-.49,0,.49.81.33.81.81a2.38,2.38,0,0,1-1.13-.48c-.17,0-.17,0-.17.16.17.32.49.32.81.48-.48.17-.81-.32-1.29-.32.32.16.32.65.81.65a2.48,2.48,0,0,1-1.14-.49c-.16,0-.16,0-.16.16.33.17.49.33.49.65-.33-.16-.49-.65-.81-.65-.16-.16-.16.33,0,.65l-.16.16c-.16-.32-.16-.64-.33-1,0,.49-.64.49-.48,1a1.49,1.49,0,0,1,.16-.81l-.16-.16c-.16.33-.65.33-.81.81,0-.32.32-.65.32-1a3.3,3.3,0,0,1-1,.65c0-.33.65-.49.49-.81-.32-.16-.65.48-1,.65-.16.16-.16,0-.16-.17.16-.32.64-.32.64-.64a2.43,2.43,0,0,0-1.13.48c0-.48.65-.48.65-.81-.49.16-.81.33-1.3.49.49,0,.33-.65.81-.65a2.34,2.34,0,0,0-1.13.49c-.16,0-.16,0-.16-.17.16-.32.65-.32.81-.64-.49,0-.81.48-1.3.48l.81-.8c-.48.32-1,.16-1.29.64a1.05,1.05,0,0,1,.81-.81c-.49,0-.81.33-1.3.49,0-.49.65-.49.81-.81a2.34,2.34,0,0,0-1.13.49c-.16,0-.16,0-.16-.17.16-.32.81-.16.81-.64-.49,0-.81.48-1.3.48.16-.32.65-.48.81-.81-.48.16-.81.33-1.29.49a.56.56,0,0,0,.32-.16c.16-.17.16-.33.49-.49-.49.16-.81.32-1.3.49.16-.49.65-.49.81-.81a2.43,2.43,0,0,0-1.13.48c-.16,0-.16,0-.16-.16.16-.16.48-.16.64-.32C8,74.3,8,74,8,74c-.49-.16-.81.49-1.3.49.33-.33.65-.49,1-.81-.32.32-1,.16-1.29.48.32-.16.32-.64.81-.64A5.21,5.21,0,0,0,5.74,74c.32-.32.65-.48,1-.81-.48,0-1,.49-1.45.49a3.3,3.3,0,0,1,1-.65c.16-.16,0-.16-.17-.16-.32.32-.8.16-1.13.49,0-.49.65-.33.81-.65.16-.16,0-.16-.16-.16A1.47,1.47,0,0,1,4.45,73a.56.56,0,0,0,.32-.16c.16-.16.16-.32.49-.48a1.87,1.87,0,0,0-1.3.48c.16-.32.65-.48,1-.81-.48.16-1,.16-1.29.49-.16.16-.32,0-.16-.16a3.83,3.83,0,0,0,1-.65L3,72.19a3.53,3.53,0,0,1,1-.64c.16-.16,0-.16-.16-.16a1.84,1.84,0,0,1-1.29.48c.48,0,.64-.81,1.13-.65-.49-.16-1,.49-1.46.33.49,0,.49-.65,1-.65-.48-.16-1,.32-1.45.32.32-.32.81-.32,1.13-.64a4.86,4.86,0,0,1-1.62.32c.49-.16.81-.48,1.3-.65a4.61,4.61,0,0,1-1.62.33c.48-.16.81-.33,1.29-.49H.57a4.79,4.79,0,0,0,1.61-.32c-.48.16-1.13-.16-1.61-.16H2.18c-.32-.33-.81-.33-1.29-.49.48,0,1.13.32,1.62.16a1.66,1.66,0,0,1-1.14-.64,5.21,5.21,0,0,0,1.46.48c-.32-.32-.65-.48-1-.81l1.46.49c-.33-.16-.49-.65-1-.65Z"/><polygon class="cls-12" points="14.47 77.28 2.63 70.45 6.56 68.18 18.39 75.02 14.47 77.28"/><path class="cls-13" d="M9.33,69.8l6.31,3.64-4,2.27-6.3-3.64.19-.25a5.82,5.82,0,0,1,1.75-1.63l0,0a2.7,2.7,0,0,1,1.57-.41Z"/><path class="cls-13" d="M11.86,71.25l1.4.81L9.31,74.34l-1.4-.81.19-.25a5.85,5.85,0,0,1,1.75-1.64h0a2.72,2.72,0,0,1,1.57-.42Z"/><path class="cls-13" d="M11.86,71.25,9.18,72.8l-1.27.73.19-.25a5.85,5.85,0,0,1,1.75-1.64h0a2.72,2.72,0,0,1,1.57-.42Z"/><path class="cls-13" d="M10.51,73.05l-.71-.41a.27.27,0,0,1-.14-.24v-.27a.28.28,0,0,1,.42-.24l.83.48a.28.28,0,0,1,.1.38l-.12.2A.28.28,0,0,1,10.51,73.05Z"/><path class="cls-13" d="M13.26,72.06,9.31,74.34l.19-.25a5.85,5.85,0,0,1,1.75-1.64h0A2.72,2.72,0,0,1,12.84,72Z"/><path class="cls-13" d="M15.64,73.44l-4,2.27.19-.25a6.1,6.1,0,0,1,1.75-1.64h0c1-.62,1.22-.55,1.57-.41Z"/><path class="cls-5" d="M50.85,70l-.16.4A2,2,0,0,1,50.85,70Z"/><path class="cls-3" d="M55.59,67a25.53,25.53,0,0,0-.94,4.7,2.79,2.79,0,0,1-1.27,2.79c-1.32.75-4,.52-4,.52A3.45,3.45,0,0,1,49,74.5a1.08,1.08,0,0,1,.12-1.2,11,11,0,0,0,1.33-2.44c.06-.16.13-.3.19-.43a1.37,1.37,0,0,0-.09.49.48.48,0,0,0,.55.53,1.65,1.65,0,0,0,2.24-1,35.42,35.42,0,0,0,.72-5,3.72,3.72,0,0,1,1.22.74h0A.87.87,0,0,1,55.59,67Z"/><path class="cls-5" d="M55.32,66.17h0a.83.83,0,0,1,0,.35,35.05,35.05,0,0,0-.93,4.71c0,1.21,0,2-1.29,2.78s-4,.51-4,.51l0,0a1.08,1.08,0,0,1,.12-1.2,11,11,0,0,0,1.33-2.44.44.44,0,0,0,.1.06.48.48,0,0,0,.55.53,2.69,2.69,0,0,0,2.11-1.7,15.55,15.55,0,0,0,.85-4.32A3.72,3.72,0,0,1,55.32,66.17Z"/><path class="cls-2" d="M25.24,28.91s-2.17,1.54-1.32,3.18,8.34,3.44,8.79,3.44,5.61-.68,3.73-1.13C28.79,32.55,28.36,28,25.24,28.91Z"/><path class="cls-13" d="M44.18,30.52,42.67,32.7a2,2,0,0,1-2.29,1.58L38.76,34s-1.14-1.86.47-2.73,2.79-1.12,3.05-1.46S44.18,30.52,44.18,30.52Z"/><rect class="cls-3" x="-1.66" y="47.38" width="60.96" height="1.13" transform="translate(-26.84 42.38) rotate(-53.28)"/><path class="cls-2" d="M42.85,13.55s0,0-.08.09c-.38.45-1.8,2.3-.48,3.61,1.5,1.5,1.85,1.34,3.5,2.3a6.58,6.58,0,0,1,2.29,2s-1,0-1.66,2-1.08,3.4-1.53,3.66.58,1.16.58,1.16,6.73-4.26,6.73-6.59S46,13,42.85,13.55Z"/><path class="cls-13" d="M45.65,24.18l-3.33,4.45s-1.16.19-1.16,1a1.8,1.8,0,0,1-.7,1.32s-1.37,1.4-1,1.75.46.28.46.28l3.79-2,4.42-4.47s1.23-.56-.75-1.7S45.65,24.18,45.65,24.18Z"/><path class="cls-13" d="M37.06,34.05l1.88,1.81s.85.62.3,1.16a.87.87,0,0,1-1.12.15.68.68,0,0,1-.37.84.79.79,0,0,1-1-.15s.41.51-.16.72a1.52,1.52,0,0,1-.77,0s0,.39-.59.23A1.8,1.8,0,0,1,34,37.57a1.64,1.64,0,0,0-.47-.86L29.21,35a3.06,3.06,0,0,1-.28-2.84,1.41,1.41,0,0,1,2-.63Z"/><path class="cls-7" d="M40.39,14.93s1-2.76,3.54-1.95,5.8,3.79,5.8,3.79a3.93,3.93,0,0,1-.82,2.77A7.41,7.41,0,0,1,46.29,21S40.39,18.9,40.39,14.93Z"/><path class="cls-7" d="M30.29,15.29s-2,.15-3.2,3.81-1.9,4.42-1.9,4.42A4,4,0,0,0,27.12,26l2.61,1.51L30.85,24l-.25-8.66Z"/></g></g></svg>