<svg xmlns="http://www.w3.org/2000/svg" viewBox="0 0 46.2 90.34"><defs><style>.cls-1{fill:#ffb28d;}.cls-2{fill:#79c7d3;}.cls-3{fill:#845c60;}.cls-4{fill:#0295ad;}.cls-5{fill:#571a04;}.cls-6{fill:#ab4003;}.cls-7{fill:#e0a273;}.cls-8{fill:#3baac4;}.cls-9{fill:#ded2d2;}.cls-10{fill:#f0a96d;}.cls-11{fill:#f0caa9;}.cls-12{fill:#ffeae1;}.cls-13{fill:#e5ac7f;}.cls-14{fill:#331a1c;}.cls-15{fill:#1a4a5a;}.cls-16{fill:#0d252d;}.cls-17{fill:#266f86;}.cls-18{fill:#0cc;}.cls-19{fill:#6cc;}.cls-20{fill:#9ff;}.cls-21{fill:#aadce6;}</style></defs><title>Asset 8</title><g id="Layer_2" data-name="Layer 2"><g id="Layer_1-2" data-name="Layer 1"><path class="cls-1" d="M25.39,11.59s-1.69.58-2.2,3.81.81,7.56.81,9-.35,3.69-.35,6.13a45.71,45.71,0,0,0,.58,6l-1,4s1.59,2.26,2.49,2.26,3.71-3.52,3.71-3.52Z"/><path class="cls-2" d="M25.81,10.89s-2.85.58-3,3.16.54,9,.27,11.09-.55,6.46-.55,8.29-.69,2.78,1.32,3.71,4.57-.91,4.57-.91-.23-7.57-.08-10.83S29.92,10.89,25.81,10.89Z"/><path class="cls-3" d="M44.68,61a4.15,4.15,0,0,1,1,1c.6.78.25,2.39.44,3.38a6.4,6.4,0,0,1-1.05,4.51c-1.1,1.52-1.68,2-2.3,1.67-.82-.45-1.16-2.45-1-3.62.24-1.78.38-3.93.38-3.93Z"/><path class="cls-4" d="M41.63,64.49c-2.57-2.47-5.09-2.42-5.85-3.9-2.26-4.36-1.49-11.5-1.88-15.65s0-5.32,0-5.32c2.43-3.83,6.65-2.11,8.22-.55S41,57,41,57.39s1.33.56,2.82,1.48,1.5,1.34,1.5,1.34S44.2,67,41.63,64.49Z"/><polygon points="30.18 69.4 30.18 69.72 32.13 70.85 32.13 70.11 30.18 69.4"/><path class="cls-5" d="M33.51,69.42c0,.2-.2-.58-.46-.43l-.92,1.12v.74l1-.57a.73.73,0,0,0,.39-.46A1.34,1.34,0,0,0,33.51,69.42Z"/><path class="cls-5" d="M33.52,68.52v.92a5.53,5.53,0,0,1-1.62.81c-.72.13-2.88,2.7-4.08,3.26-3.76,1.77-4.14,0-4.11-.11a3.49,3.49,0,0,1,1.5-1.8A7.7,7.7,0,0,0,27,69.21c.34-.55,1.13-1.72,1.7-1.4a21.94,21.94,0,0,1,1.87,1.4,9,9,0,0,0,2.14-1.51,3.86,3.86,0,0,0,.4-1.24A7.46,7.46,0,0,1,33.52,68.52Z"/><path class="cls-6" d="M32.66,67.7a3.61,3.61,0,0,0,.39-1.18,1,1,0,0,0-.39-.3c-.58-.34-1.4.1-1.94.64A13.27,13.27,0,0,1,29,68.07c.63.44,1.48,1.14,1.48,1.14A9,9,0,0,0,32.66,67.7Z"/><path class="cls-7" d="M32.2,66.21a.8.8,0,0,1,.41.1,1.08,1.08,0,0,1,.33.24,3.8,3.8,0,0,1-.37,1.1,10.72,10.72,0,0,1-2.36,1.64l-1.32-1a17.58,17.58,0,0,0,1.9-1.34,2.27,2.27,0,0,1,1.41-.72Zm0-.11a2.32,2.32,0,0,0-1.48.76,18.35,18.35,0,0,1-2,1.4l1.5,1.16a11.75,11.75,0,0,0,2.45-1.72,3.61,3.61,0,0,0,.39-1.18,1,1,0,0,0-.39-.3.93.93,0,0,0-.46-.12Z"/><path class="cls-3" d="M33.52,68.52v.67s-.39.17-.83.4h0c-.41.23-1,.06-1.28.32s-.55.66-.92,1a11.81,11.81,0,0,1-2.67,2.32c-2.83,1.22-3.69,1-4,0-.16-.61.94-1.8,1.52-2.13.41-.24.36-.32.88-.87a5.36,5.36,0,0,0,.69-1A5,5,0,0,1,28,68a.61.61,0,0,1,.68-.15l.25.15.15.11c.63.44,1.48,1.14,1.48,1.14a9,9,0,0,0,2.14-1.51,3.61,3.61,0,0,0,.39-1.18.28.28,0,0,0,0-.06,10.75,10.75,0,0,1,.34,1.14A4.39,4.39,0,0,1,33.52,68.52Z"/><path class="cls-4" d="M26.39,34.58s-.48-2.33-.64,9.52c-.1,7.75.53,9.42,1.39,11.58,1.17,2.94.35,12.08.35,12.08s2,2,3.45,1.23C34,67.4,33.3,65.75,33.3,65.75s.13-6.88-.82-10.33c-.34-1.25,1.18-6.32,1.46-9.08,1-9.36,1.52-3,.11-8.25C33.47,36,26.39,34.58,26.39,34.58Z"/><path class="cls-8" d="M34.56,13a18.29,18.29,0,0,1,3,3c1.53,1.89,1.72,2.11,1.24,6.29S39,29.69,39,32.58c0,.57,1.56,2.16,2.33,3.42s1,4.9,1,4.9,0,2.28-5,1.08-13.44-3.31-10.84-7.83c.72-1.26,1.36-1.74,1-3.48s-3.62-17.43-1.9-18.37,5.11.24,6.33.65A5.43,5.43,0,0,0,34.56,13Z"/><path class="cls-9" d="M28.55,18.46l0,0,0-.26C28.55,18.34,28.55,18.46,28.55,18.46Z"/><path class="cls-4" d="M28.53,37.14s-.87,3.43.93,5.55,2.42,2.29,2.88,2.56,2.59-.3,2.73-.44,2.12-6,1.85-6.15S28.53,37.14,28.53,37.14Z"/><path class="cls-8" d="M31.88,24.06s-3.1-1.86-2.23-3.58-.43-3.61-.43-3.61,10.08-2.13,7.5-3.1-9.77-5.4-12.47-.9c-2.28,3.8-1.69,4.93-1.58,8.33.13,4,3.22,8.88,3.22,9.62,0,1.29-.63,2.92-.92,8.12s6.39,4.73,6.39,4.73l3-18.11Z"/><path class="cls-8" d="M40.76,32.31c-.55-1.27,1.73-3.11.57-13.74-.38-3.5-5.22-5.9-5.22-5.9S34.47,16.25,32,17.6s-1.15.57-1.15.57l-.66-.76S27.11,20,29.06,32.26c.43,2.74,0,11.11,0,11.11s13.44,1.82,13.81-3.26C43.09,37.05,41.3,33.57,40.76,32.31Z"/><path class="cls-8" d="M30.19,17.41S27.11,20,29.06,32.26c.43,2.74,0,11.11,0,11.11Z"/><path class="cls-4" d="M30.19,17.41a1.15,1.15,0,0,0-.18.23,3.13,3.13,0,0,0-.41.72c-.08.16-.16.34-.25.54l-.19.67a7.81,7.81,0,0,0-.21.77q-.07.42-.15.87c-.05.3-.1.62-.15.95s0,.67-.06,1a20.22,20.22,0,0,0-.05,2.22q.06,1.16.12,2.37c.05.8.19,1.61.29,2.43s.21,1.62.25,2.45.09,1.6.14,2.38c0,1.54,0,3-.06,4.23-.1,2.47-.22,4.11-.22,4.11s0-1.65.07-4.12c0-1.23,0-2.67,0-4.21-.06-.77-.12-1.56-.17-2.37s-.2-1.62-.29-2.44-.22-1.63-.26-2.44-.05-1.62-.08-2.39a20.13,20.13,0,0,1,.08-2.23c0-.36.05-.7.07-1s.12-.65.18-1,.1-.59.16-.87a7,7,0,0,1,.24-.77l.22-.67.27-.53a3.26,3.26,0,0,1,.45-.71A1.51,1.51,0,0,1,30.19,17.41Z"/><path class="cls-10" d="M28.7,13.21a10.4,10.4,0,0,1,1.41,2.69,3.45,3.45,0,0,0,.08,1.66c.27.86,1.82-.76,3.39-1.84a5.32,5.32,0,0,0,2.24-3.06,1.59,1.59,0,0,1-1.31-1.56C34.54,9.8,28.7,13.21,28.7,13.21Z"/><path class="cls-11" d="M25.88,4.34S25.11,7.13,25.56,8s.7.25.68,1.35-.43,1.55.25,2.27,1.24.74,1.21,2,1.93,1.05,3.28.31S35,11.44,35.62,9.65,39,.61,31.15.07C27.54-.18,25.88,4.34,25.88,4.34Z"/><path class="cls-12" d="M33.86,7.92s.44-.85.81-.58a1.4,1.4,0,0,1,.47,1.49c-.15.69-.54,1.53-1,1.5s-.62,0-.86-.34a1,1,0,0,1-.08-.79Z"/><path class="cls-11" d="M33.67,8s.43-.86.81-.58a1.38,1.38,0,0,1,.46,1.49c-.15.69-.53,1.52-1,1.5s-.62,0-.86-.34A1,1,0,0,1,33,9.26Z"/><path class="cls-13" d="M34,8.21s.13.42.18.6a.83.83,0,0,1,0,.62,2,2,0,0,1-.19.23,6.76,6.76,0,0,0,0-1,1,1,0,0,1,.07-.72c.13-.2.23-.46.41-.21a1.16,1.16,0,0,1,.26.95,2,2,0,0,1-.42,1.08,1.33,1.33,0,0,1-.48.28,1.18,1.18,0,0,0,.67-.7c.12-.5.19-1.27.05-1.4s-.17-.17-.19,0,.07.47-.06.37-.14-.36-.22-.25S34,8.21,34,8.21Z"/><path class="cls-13" d="M33.89,9s0-.41-.14-.4-.1,0-.16.15-.07.18-.2.14-.21-.16-.1,0,.14,0,.32.13.11.31.24.33.06-.27,0-.35Z"/><path class="cls-14" d="M26.8,2.06s-2.28,2.35-1.38,2.86,4.09,0,5.59.9,1.09,4.33,1.7,3.59,1.31-2.73,2-2.61,0,4.58.42,3.71S38,5.64,36.94,3.4,31.09-2.23,26.8,2.06Z"/><path class="cls-2" d="M36.59,13.08l-1.83-1.35a10.78,10.78,0,0,1-2.45,4.89,4.41,4.41,0,0,1-2.12.94l.46,1.85a5.5,5.5,0,0,0,3.23-1.53C35.4,16.44,36.59,13.08,36.59,13.08Z"/><path class="cls-2" d="M30.11,15.9a10.65,10.65,0,0,0-.54-1.29,2.85,2.85,0,0,0-1.43,1.14c-.26.56.46,1.73.42,2.37l1.63-.56A2.52,2.52,0,0,0,30.11,15.9Z"/><polygon class="cls-2" points="34.23 24.75 34.23 28.09 32.73 27.86 31.22 26.35 31.22 23.01 34.23 24.75"/><polygon class="cls-2" points="26.44 21.08 26.44 24.42 24.94 24.2 23.44 22.68 23.44 19.34 26.44 21.08"/><path class="cls-15" d="M6.43,78,9,76.84h1L22.56,65.24,18,62.64a3.35,3.35,0,0,0-1.49-.58,2.41,2.41,0,0,0-1.84.51C13.07,63.8,6.43,78,6.43,78Z"/><path class="cls-15" d="M15.34,80c-1.4,1.12-2.59,1.93-3.13,3.36s-5,7-5,7L.06,86.22a2.47,2.47,0,0,1,1.07-2.36A20.38,20.38,0,0,1,6,81.38a8.69,8.69,0,0,1,2.75-3c1.77-1.09,2.34-1.33,2.82-1.06S15.34,80,15.34,80Z"/><path class="cls-16" d="M15.05,81.62c-1.4,1.12-1.76.92-2.29,2.35a4.4,4.4,0,0,1-1.87,2.62c-1.33,1.17-3.66,3.75-3.66,3.75-.15.06-.27-1,.5-2.35a38,38,0,0,1,2.81-4,8.68,8.68,0,0,1,2.75-3c1.76-1.09,2.33-1.33,2.81-1S15.05,81.62,15.05,81.62Z"/><path class="cls-17" d="M11,80.58l2.61-1.15h1l.7.43,7.26-14.63a3.36,3.36,0,0,0-1.49-.59,2.41,2.41,0,0,0-1.84.51C17.63,66.39,11,80.58,11,80.58Z"/><path class="cls-17" d="M10.85,76.86a26.67,26.67,0,0,0-2.91-.12c-2.22,0-3.71,2.07-3.83,4a2.57,2.57,0,0,0,.8,1.69l4.84,2.76,5.38-5.52Z"/><path class="cls-15" d="M15.3,79.87s-.58-.52-2.8-.54-3.72,2.07-3.84,4c-.05.87,1.09,1.86,1.09,1.86Z"/><path class="cls-18" d="M6.73,77l4.8,2.48,9.54-14.79-4.56-2.59a2.41,2.41,0,0,0-1.84.51C13.07,63.8,6.73,77,6.73,77Z"/><path class="cls-19" d="M11.53,79.44h2.06l7.48-14.78a2.41,2.41,0,0,0-1.84.51C17.63,66.39,11.53,79.44,11.53,79.44Z"/><path d="M12.1,83.62c0,1.06.74,1.49,1.65,1a3.65,3.65,0,0,0,1.66-2.87c0-1.06-.74-1.49-1.66-1A3.68,3.68,0,0,0,12.1,83.62Z"/><path class="cls-20" d="M12.51,83.38c0,.8.56,1.12,1.24.72A2.74,2.74,0,0,0,15,82c0-.79-.55-1.12-1.24-.72A2.77,2.77,0,0,0,12.51,83.38Z"/><path class="cls-16" d="M13.22,83c0,.34.24.48.53.31a1.15,1.15,0,0,0,.53-.92c0-.34-.23-.48-.53-.31A1.18,1.18,0,0,0,13.22,83Z"/><path class="cls-21" d="M26.85,48.1,19.47,63.53c0,.06-.11.08-.25.07a1.65,1.65,0,0,1-.85-.41c-.09-.09-.13-.18-.1-.23l7.38-15.44Z"/><path class="cls-21" d="M26.58,48.21a1.65,1.65,0,0,1-.85-.41c-.19-.2-.13-.33.15-.3a1.6,1.6,0,0,1,.85.4C26.92,48.1,26.86,48.23,26.58,48.21Z"/><path class="cls-17" d="M24.94,46.59A5.83,5.83,0,0,1,27,44.1,9.27,9.27,0,0,1,29,43l1.18.67L30.05,45l-.51-.3s.11-.56-.58-.3a4.93,4.93,0,0,0-1.73,1.9c0,.14-1.42,2.94-1.42,2.94l-1.17-.65Z"/><path class="cls-15" d="M26.12,47.24a5.83,5.83,0,0,1,2.06-2.49,8.23,8.23,0,0,1,2-1.12l.38,1-.49.28s.11-.56-.58-.31a5,5,0,0,0-1.72,1.9c0,.15-.8,2.56-.8,2.56l-1.14.09Z"/><path class="cls-11" d="M31.43,41.93s-3.57.52-3.24.85S27,44.16,26.27,44.32s.34,1.16,1.51.58c1-.48,1.11-.93,1.11-.93s-2.06,4.24-1.45,4.24A6.48,6.48,0,0,0,31,46.42c.76-.92,2.66-4.09,2.66-4.09Z"/><path class="cls-2" d="M39.76,15.59c-1.17-.53-4.92,3.17-3.74,5.4s.71,9.4.71,9.4l-6.15,10s-1.08,1-.7,1.73,3.51,1.24,3.51,1.24,8.21-10.16,9.1-11.59S43.25,17.16,39.76,15.59Z"/></g></g></svg>