<svg xmlns="http://www.w3.org/2000/svg" xmlns:xlink="http://www.w3.org/1999/xlink" viewBox="0 0 34.92 79.75"><defs><style>.cls-1{fill:none;}.cls-2{fill:#d2e1f7;}.cls-3{fill:#fff1d9;}.cls-4{fill:#79c7d3;}.cls-5{fill:#9ff;}.cls-6{fill:#feb30f;}.cls-7{fill:#f4debe;}.cls-8{fill:#506589;}.cls-9{fill:#5ca9c2;}.cls-10{fill:#feb516;}.cls-11{fill:#3baac4;}.cls-12{fill:#0aa1c4;}.cls-13{fill:#253538;}.cls-14{fill:#ffeae1;}.cls-15{fill:#e5ac7f;}.cls-16{fill:#6cc;}.cls-17{fill:#0cc;}.cls-18{fill:#ff5d0d;}.cls-19{clip-path:url(#clip-path);}.cls-20{fill:#95d3e0;}.cls-21{fill:#aadce6;}.cls-22{fill:#ff9764;}.cls-23{fill:#ffb28d;}.cls-24{fill:#ffb48f;}.cls-25{fill:#ffccb3;}.cls-26{fill:#ff864a;}.cls-27{fill:#ffc4a7;}.cls-28{fill:#ff884d;}.cls-29{fill:#0d252d;}.cls-30{fill:#ffae30;}.cls-31{fill:#ffbe59;}.cls-32{fill:#ffce83;}.cls-33{fill:#07a2b2;}.cls-34{fill:#bfe5ec;}.cls-35{fill:#0295ad;}.cls-36{fill:#ff3830;}.cls-37{fill:#d9e6f9;}</style><clipPath id="clip-path"><path class="cls-1" d="M23.52,34.17V19.76H1.22V32.91c0,.2.2.44.54.64l10.33,5.81a3.62,3.62,0,0,0,1.75.41,3.58,3.58,0,0,0,1.74-.41L23.06,35c.34-.2.54-.44.54-.64A.43.43,0,0,0,23.52,34.17Z"/></clipPath></defs><title>Asset 5</title><g id="Layer_2" data-name="Layer 2"><g id="Layer_1-2" data-name="Layer 1"><path d="M25.72,2.22s.32-.08.65-.74A3.18,3.18,0,0,1,29.52.06a4.23,4.23,0,0,1,2.73,4.59c-.23,2.45-1.08,5-.67,5s.18.68-1,0,.51-3.83-2.28-5.55-2.8-1.9-2.8-1.9Z"/><path class="cls-2" d="M9.27,29.57l-2.86.1A1.58,1.58,0,0,0,6,31.15c.12,1.1.22,1.86.8,2.1s2.72-1.94,2.72-1.94l-.16-1.93Z"/><path class="cls-3" d="M20.66,13.51c3.17-.3-1.62,6.33-2.36,8.55s-.38,1.88-1.12,4.1-3.37,2.66-5.46,3.94a27.74,27.74,0,0,1-5,2.22L5.18,30.49s4-.42,5.18-2.16a7.32,7.32,0,0,1,4.3-2.5s2.43-7.68,2.86-8.72C18.26,15.32,18.81,13.69,20.66,13.51Z"/><path class="cls-3" d="M8.13,31.29a2.89,2.89,0,0,0-1.41-1.68,3.21,3.21,0,0,0-2.38.22,2.26,2.26,0,0,0,.15,2.55,5.25,5.25,0,0,0,2.86.12A6.19,6.19,0,0,0,8.13,31.29Z"/><path class="cls-3" d="M7,29.45v-.66L4.29,29.9l-.71.92-.31,1.3s.56.11.68-.33.23-.78.23-.78l.51-.51,1.36-.34Z"/><path class="cls-3" d="M4.74,31.06l-.07,0L3,31.66l-.74,1L2,34.11s.6.09.72-.38.22-.87.22-.87l.54-.57,1.46-.41Z"/><path class="cls-3" d="M5,31.84H5l-1.42.37-.67.8-.33,1.15s.49.11.62-.27.24-.69.24-.69l.47-.44,1.23-.25Z"/><path class="cls-3" d="M4.94,32.3l0,0-1,.29-.44.58-.2.82s.35.06.43-.21.14-.49.14-.49L4.16,33l1.3-.27Z"/><path class="cls-4" d="M21.84,13.53s-2.72-1.94-4.54,2.88-3.3,9.3-3.3,9.3a10.21,10.21,0,0,0-4.5,1.87c-2.28,1.66-2.91,2.16-2.91,2.16S7.87,29.45,8,31a3.89,3.89,0,0,1-.85,2.24s8.67-2.74,10.28-5.39S25,15.78,21.84,13.53Z"/><path class="cls-5" d="M27.86,13.17a13.06,13.06,0,0,0,3.34,2.26c2.18,1,2.54,1,2.16,5.17s-3.83,8-3.83,10.89c0,.56,1.24,2.67,2,3.91s.53,6.52.53,6.52,1.57.56-3.39-.63S15.37,38,18,33.53c.71-1.23,1.82-1.76,1.49-3.48s-1.7-5.51-.2-7.93c2.21-3.56.15-8.9,1.83-9.87s3,.54,4.17.92A5.52,5.52,0,0,0,27.86,13.17Z"/><path class="cls-6" d="M21.71,22.66a2.7,2.7,0,1,1-5.39,0c0-1.48,2.38-3.78,2.38-3.78S21.71,21.18,21.71,22.66Z"/><path class="cls-6" d="M27.59,24.43c0,2.64-2.09,4.39-3.58,4.39a2.7,2.7,0,0,1,0-5.39C25.5,23.43,27.59,22.94,27.59,24.43Z"/><path class="cls-7" d="M25.06,37.47c-.65-2.07-6.95-3.4-6.95-3.4s-1.19.89-1.72,7.1.78,14.27,1.83,15.32,1.67,6,1.67,8.27-.27,4.3-1.13,5.42-2.23,2.66-2.53,3-.32,2.26.26,2.6,3-1.06,3.78-1.81,1.89-3,2.54-3-.12-1.71-.12-3.33,1.67-5.87,1.21-7.92-1-2.11-1.26-4.78.62-12.85.62-12.85Z"/><path class="cls-3" d="M26.19,72.22A13.38,13.38,0,0,1,24,75.56c-1.26,1.26-1.88,2.55-1.33,2.87,1.13.65.44.38,1.89.38s2.89-1.61,3.32-2.47a8,8,0,0,1,1.47-1.67,1.62,1.62,0,0,0,.43-1.75A6.17,6.17,0,0,1,29.35,71a10.52,10.52,0,0,1,.52-4.37,14.1,14.1,0,0,0-.28-10.57c-1.4-3.61,3.66-13.56,2.47-15.67s-9.53-6.84-9.21-1.45c0,0,.54,15.86,1.78,18.5a12.75,12.75,0,0,1,1.43,5.42C26.17,64.3,26.19,72.22,26.19,72.22Z"/><path class="cls-8" d="M29.88,73.35a7.52,7.52,0,0,1,.19,1.33,2.31,2.31,0,0,1-.31,1l-.82.48-.23-.14s-2.1,2.76-3.14,3.16-2.79.84-3.85.23.37-1.84.61-2a32.64,32.64,0,0,1,3.37-.2Z"/><path class="cls-8" d="M23.4,69.63A7.53,7.53,0,0,1,23.59,71a2.3,2.3,0,0,1-.31,1l-.82.48-.23-.14a16,16,0,0,1-2.74,3c-.94.55-2.83,1.08-3.9.46s.25-2,.49-2.18a24.34,24.34,0,0,1,3.14-.07Z"/><path class="cls-9" d="M23.57,76s-.52.52.58.91c2.12.75,4.45-3,5-4a4.39,4.39,0,0,0,.42-.91A2.73,2.73,0,0,1,30,74.16c-.29,1.19-1.07,1.25-1.9,2.42-1,1.41-2.62,3.21-5.67,2.81-1.58-.21-.33-1.76,0-2.13S23.57,76,23.57,76Z"/><path class="cls-9" d="M17.36,71.88s-.93,1.19.2,1.43,4-2.21,4.48-3.19c.37-.69.71-1.52.71-1.52a2.67,2.67,0,0,1,.79,2.24c-.3,1.2-1.07.7-1.9,1.86-1,1.41-2.37,3.46-5.41,3-1.59-.21-1.14-1.19.12-2.73C16.68,72.61,17.36,71.88,17.36,71.88Z"/><path class="cls-10" d="M18.3,31.39c-.36,1.14,1,1.91,3.13,3.17,2.92,1.68,5.64,2.13,7.45,1.09.94-.55,2-1.09,1.6-2a15.17,15.17,0,0,1,2.14,4c.45,1.62-.27,17.69-.53,19.07,0,0-1.7,6.05-7.54,4.2s-6.78-3-7.37-4.36-1.57-20.4.24-22.87C18.49,32.24,18.3,31.39,18.3,31.39Z"/><path class="cls-11" d="M21.32,21.84S25,18.82,27,17s1.6-3.13,1.6-3.13l4.69,2.24s.72,4.17-.34,6.69-3.87,8-2.54,9.32,3.46,8.57,3.46,13.17-1.74,12-1.74,12-1.26,4.73-4.5,4.18a68.56,68.56,0,0,1-7.92-2.07s0-21,.87-23.69S21.32,21.84,21.32,21.84Z"/><path class="cls-12" d="M21.85,17c-.56,1.21-.52,5.3-.52,5.3s1.21,9.2.32,10.86S20,59.73,20,59.73s-3.66-2.5-4.52-3.36.12-21.47,2.69-24c2-2-.11-6.22-.71-6.82s-2.85-2.41.43-6.18c1.88-2.15,1.26-6.55,3.2-7.08s3.11,1.94,3.11,1.94A21.43,21.43,0,0,0,21.85,17Z"/><path class="cls-4" d="M20,16.38l1.35-.4L20,15.36l3.9-3.18,1.78,1a5.24,5.24,0,0,0-3.28,3,14.52,14.52,0,0,0-1.05,6.06Z"/><path class="cls-7" d="M21.85,13.34A10.06,10.06,0,0,1,23.31,16c0,.61-.57.73-.28,1.58s3.24.19,4.59-1.64.94-2.07.94-2.07a5.74,5.74,0,0,1-1-2.72C27.55,9.83,21.85,13.34,21.85,13.34Z"/><path class="cls-3" d="M30.67,6.71A5,5,0,0,0,21.1,4.6h0a7.61,7.61,0,0,0-.92,2.5c0,.87.38.45.19,1.28s-.75,1.2,0,2.63.92,2.64,1.06,2.78-.16.68,2.28.23a9.64,9.64,0,0,0,4.88-2.41,5.7,5.7,0,0,0,1-1.75A5,5,0,0,0,30.67,6.71Z"/><path class="cls-4" d="M20.85,22.27l7.45-4.33-.95-1.26,1.54.88s1.65-2.06,1.18-3.19a7.13,7.13,0,0,0-1.77-2.19,7.48,7.48,0,0,1-.56,2C25.66,19,20.85,22.27,20.85,22.27Z"/><path class="cls-13" d="M23.19,3c0,.33-1.28,1.92.44,2.91s1.56.52,2.22,1.54.31,3.54.31,3.54.88-2.75,2-2.07-.34,3.52-.34,3.52S31.45,10.08,31,6.78s-1.13-3.85-2.37-4.56-4.57-1.79-6.55.19c-2.34,2.34-1.53,3.64-1.53,3.64Z"/><path class="cls-14" d="M27.76,8.5s.41-.86.79-.59a1.39,1.39,0,0,1,.5,1.46c-.14.68-.5,1.52-1,1.51s-.61,0-.86-.31a.93.93,0,0,1-.1-.78Z"/><path class="cls-3" d="M27.57,8.57s.41-.86.79-.59a1.37,1.37,0,0,1,.5,1.45c-.14.69-.5,1.53-1,1.51s-.61.05-.86-.31a.93.93,0,0,1-.1-.78Z"/><path class="cls-15" d="M27.94,8.78s.14.41.19.59a.94.94,0,0,1,0,.62,2,2,0,0,1-.19.23,6.06,6.06,0,0,0,0-1,1,1,0,0,1,0-.72c.12-.19.22-.45.4-.21a1.15,1.15,0,0,1,.28.93,2,2,0,0,1-.39,1.08,1.36,1.36,0,0,1-.47.29,1.15,1.15,0,0,0,.64-.71c.11-.49.17-1.26,0-1.39s-.17-.16-.18,0,.08.46-.05.37-.15-.35-.23-.25S27.94,8.78,27.94,8.78Z"/><path class="cls-15" d="M27.82,9.6s-.06-.4-.15-.39-.1,0-.15.14-.07.19-.2.15-.21-.15-.1,0,.14,0,.32.12.12.3.24.31.06-.26,0-.34Z"/><path class="cls-16" d="M1,34.89l1.39,12.2v0a1.13,1.13,0,0,0,.67.93l9.31,5.22a3.17,3.17,0,0,0,1.34.37,3.42,3.42,0,0,0,1.9-.37l5.89-3.4a1.3,1.3,0,0,0,.64-.71h0l0-.28,1.4-12.36-9.86.8Z"/><path class="cls-17" d="M1,34.89l1.39,12.2v0a1.13,1.13,0,0,0,.67.93l9.31,5.22a3.17,3.17,0,0,0,1.34.37V37.33Z"/><path class="cls-5" d="M15.72,41.81l7.48-4.32c1.14-.66,1.46-3.18.32-3.83L12.87,29.3a4.53,4.53,0,0,0-4.12,0l-8.16,3c-1.14.66-.46,3,.67,3.66L11.6,41.81A4.6,4.6,0,0,0,15.72,41.81Z"/><path class="cls-18" d="M13.84,40.08a3.84,3.84,0,0,1-1.9-.45L1.6,33.82A1,1,0,0,1,1.6,32l7.49-4.32a3.84,3.84,0,0,1,1.9-.45,3.9,3.9,0,0,1,1.9.45l10.33,5.81a1.15,1.15,0,0,1,.7.92c0,.33-.25.65-.7.91l-7.48,4.32A3.87,3.87,0,0,1,13.84,40.08Z"/><path class="cls-17" d="M23.06,35c.34-.2.54-.44.54-.64s-.2-.45-.54-.65L12.74,28A3.54,3.54,0,0,0,11,27.54a3.62,3.62,0,0,0-1.75.4L1.76,32.26c-.34.2-.54.44-.54.65s.2.44.54.64l10.33,5.81a3.62,3.62,0,0,0,1.75.41,3.58,3.58,0,0,0,1.74-.41Z"/><path class="cls-17" d="M23.38,33.21,13.05,27.4A4.22,4.22,0,0,0,11,26.9a4.19,4.19,0,0,0-2.06.5L1.44,31.72a1.25,1.25,0,0,0,0,2.37L11.78,39.9a4.19,4.19,0,0,0,2.06.5,4.22,4.22,0,0,0,2.06-.5l7.48-4.32A1.25,1.25,0,0,0,23.38,33.21ZM12.09,39.36,1.76,33.55c-.34-.2-.54-.44-.54-.64s.2-.45.54-.65l7.48-4.32a3.62,3.62,0,0,1,1.75-.4,3.54,3.54,0,0,1,1.75.41l10.32,5.8c.34.2.54.44.54.65s-.2.44-.54.64l-7.48,4.32a3.58,3.58,0,0,1-1.74.41A3.62,3.62,0,0,1,12.09,39.36Z"/><g class="cls-19"><path class="cls-20" d="M6.52,35.34l-1.2,2.51c-.37.21-1.92-1-2-1.33l-.3-2.88c0-1.26,2.4-3.8,2.4-3.8.65-.78,1.18-1.59,1.56-1.13l.07,0c.31.11.49,1.12.48,1.55l-.33,3.93a1.53,1.53,0,0,1-.72,1.12Z"/><path class="cls-21" d="M7.67,30,7,30.38c-.87.5-1.57.21-1.57-.65V27.46L7,26.59Z"/><path class="cls-4" d="M8.58,30.54,7.86,35.4c-.86.5-1.49-4.28-1.49-5.14V28l1.51-.87Z"/><polygon class="cls-22" points="6.21 28.15 5.29 27.62 5.29 27.11 6.21 27.64 6.21 28.15"/><polygon class="cls-23" points="8.05 27.09 6.21 28.15 6.21 27.64 8.05 26.57 8.05 27.09"/><path class="cls-24" d="M3.75,29.79h0c-.09.07-.1,0,0-.14.49-1.14.21-1.72.84-2.71,2.3-1.59,1.14.2,1.45.09-1-.19-1.79,3-1.79,3a3,3,0,0,1-.45-.24Z"/><path class="cls-22" d="M4.2,30h0c-.09.06-.1,0,0-.14.49-1.15.21-1.72.84-2.72,2.3-1.58,1.14.21,1.45.1-1-.19-1.25,1.12-1.9,2.33A4.65,4.65,0,0,1,4.2,30Z"/><path class="cls-18" d="M6.87,26.33l-1.72,1a3.24,3.24,0,0,0-.92-.53c0-.17,0-.8.08-1L7.8,24.32a3.92,3.92,0,0,0-.93,2Z"/><path class="cls-4" d="M8.12,36.44,5.67,37.85c-.36.21-.67.12-.71-.23l-.3-2.88c0-1.26,1.72-4.39,1.72-4.39a3.07,3.07,0,0,1,2-.87c.65.31.84,1.48.84,1.91l-.34,3.94a1.49,1.49,0,0,1-.71,1.11Z"/><path class="cls-12" d="M5.67,37.23s-.08,0-.08,0l-.3-2.85a10.55,10.55,0,0,1,1.86-3.41,1.79,1.79,0,0,1,.38-.31.84.84,0,0,1,.66-.12l.05,0a2.43,2.43,0,0,1,.3,1.19l-.33,3.94v0a.18.18,0,0,1-.09.14Z"/><path class="cls-25" d="M8.12,36,5.67,37.39c-.12.07-.23,0-.24-.08l-.3-2.86h0c0-.75,1.19-2.59,1.92-3.57l0,0a2.45,2.45,0,0,1,.45-.36.94.94,0,0,1,.77-.13l.07,0a2.44,2.44,0,0,1,.33,1.26l-.33,3.95h0a.53.53,0,0,1-.25.39ZM5.74,37,8.05,35.7l.33-3.9a2.56,2.56,0,0,0-.26-1.09l0,0a.91.91,0,0,0-.85.34,10.29,10.29,0,0,0-1.78,3.23Z"/><polygon class="cls-26" points="8.72 24.84 5.23 26.86 5.23 26.39 8.33 24.61 8.72 24.84"/><path class="cls-27" d="M7.78,26.86l-1,.59a4.41,4.41,0,0,1-1.61-.08c0-.17,0-.32,0-.5l3.52-2a3.87,3.87,0,0,0-.94,2Z"/><polygon class="cls-28" points="8.33 24.61 5.23 26.39 4.32 25.87 7.41 24.08 8.33 24.61"/><path class="cls-28" d="M5,26.83a.73.73,0,0,0-.33-.58.21.21,0,0,0-.25,0h0l-.62.47L4,27l.21.3.63-.26.09,0h0A.24.24,0,0,0,5,26.83Z"/><path class="cls-27" d="M4.26,27.18c0,.17-.12.24-.26.15a.57.57,0,0,1-.27-.46c0-.16.12-.23.27-.15A.61.61,0,0,1,4.26,27.18Z"/><path class="cls-20" d="M18.51,38.34l1.2,2.52c.37.21,1.92-1,1.95-1.33L22,36.64c0-1.25-2.41-3.79-2.41-3.79-.64-.79-1.18-1.59-1.55-1.13l-.07,0c-.31.12-.49,1.12-.48,1.55l.33,3.94a1.44,1.44,0,0,0,.72,1.11Z"/><path class="cls-21" d="M17.36,33l.64.37c.87.5,1.57.21,1.57-.64V30.46l-1.5-.86Z"/><path class="cls-4" d="M16.45,33.54l.71,4.87c.87.5,1.49-4.29,1.49-5.15V31l-1.5-.87Z"/><polygon class="cls-22" points="18.82 31.16 19.73 30.63 19.73 30.11 18.82 30.64 18.82 31.16"/><polygon class="cls-23" points="16.98 30.09 18.82 31.16 18.82 30.64 16.98 29.58 16.98 30.09"/><path class="cls-24" d="M21.28,32.8h0c.09.07.1,0,0-.14-.49-1.14-.21-1.72-.84-2.71-2.3-1.59-1.14.2-1.46.09,1-.19,1.8,3,1.8,3a2.75,2.75,0,0,0,.45-.23Z"/><path class="cls-22" d="M20.83,33h0c.09.07.1,0,.05-.14-.5-1.14-.21-1.72-.84-2.71-2.3-1.59-1.15.21-1.46.09,1-.18,1.25,1.12,1.91,2.34a3.64,3.64,0,0,0,.34.42Z"/><path class="cls-18" d="M18.16,29.33l1.72,1.05a3.24,3.24,0,0,1,.92-.53c0-.18-.05-.8-.09-1l-3.49-1.55a3.94,3.94,0,0,1,.94,2Z"/><path class="cls-4" d="M16.91,39.45l2.44,1.41c.37.21.68.11.72-.23l.3-2.88c0-1.26-1.72-4.4-1.72-4.4a3.05,3.05,0,0,0-1.95-.86c-.65.31-.84,1.47-.84,1.9l.33,3.94a1.53,1.53,0,0,0,.72,1.12Z"/><path class="cls-12" d="M19.35,40.24s.09,0,.09,0l.3-2.85a10.78,10.78,0,0,0-1.86-3.42,1.57,1.57,0,0,0-.39-.3.77.77,0,0,0-.65-.12l-.05,0a2.43,2.43,0,0,0-.3,1.19l.33,3.93v0a.18.18,0,0,0,.09.14Z"/><path class="cls-25" d="M16.91,39l2.44,1.42c.13.07.24,0,.25-.08l.3-2.86v0c0-.74-1.2-2.58-1.92-3.57l0,0a1.87,1.87,0,0,0-.45-.36.92.92,0,0,0-.76-.14l-.07,0a2.47,2.47,0,0,0-.33,1.26l.33,4h0a.49.49,0,0,0,.25.38ZM19.29,40,17,38.71l-.34-3.91a2.74,2.74,0,0,1,.27-1.09h0a.93.93,0,0,1,.85.33,10.62,10.62,0,0,1,1.78,3.23Z"/><polygon class="cls-26" points="16.31 27.85 19.8 29.86 19.8 29.4 16.7 27.61 16.31 27.85"/><path class="cls-27" d="M17.25,29.86l1,.59a4.46,4.46,0,0,0,1.61-.07c0-.18,0-.32-.06-.5l-3.51-2a4,4,0,0,1,.94,2Z"/><polygon class="cls-28" points="16.7 27.61 19.8 29.4 20.71 28.87 17.61 27.08 16.7 27.61"/><path class="cls-28" d="M20,29.84a.73.73,0,0,1,.34-.58.21.21,0,0,1,.25,0h0l.62.47L21,30l-.21.31-.64-.27a.13.13,0,0,1-.08,0h0A.23.23,0,0,1,20,29.84Z"/><path class="cls-27" d="M20.77,30.19c0,.17.12.23.26.15a.57.57,0,0,0,.27-.46c0-.17-.12-.24-.27-.15A.59.59,0,0,0,20.77,30.19Z"/><path class="cls-29" d="M11.48,37.86v.06h0A.13.13,0,0,0,11.48,37.86Z"/><path class="cls-30" d="M11.37,33.15v4.77a1,1,0,0,1-.53.67,2.76,2.76,0,0,1-2.53,0,.93.93,0,0,1-.52-.67h0V33.15Z"/><path class="cls-31" d="M11.37,33a1.46,1.46,0,0,0-.91-1.19l-.2.31a2.92,2.92,0,0,0-.73-.08v0l-.86-.2s-.76.64-.84,1h0c-.12.33,0,.69.48,1a2.82,2.82,0,0,0,2.53,0,.87.87,0,0,0,.52-.79A0,0,0,0,1,11.37,33Z"/><path class="cls-32" d="M10.28,32.48a1.51,1.51,0,0,1-1.4,0,.42.42,0,0,1,0-.8,1.51,1.51,0,0,1,1.4,0A.42.42,0,0,1,10.28,32.48Z"/><path class="cls-33" d="M10.21,31.27V32a.38.38,0,0,1-.19.24,1,1,0,0,1-.93,0A.33.33,0,0,1,8.91,32h0v-.69Z"/><path class="cls-34" d="M10,31.52a1,1,0,0,1-.93,0,.28.28,0,0,1,0-.53A1,1,0,0,1,10,31,.28.28,0,0,1,10,31.52Z"/><path class="cls-29" d="M16,39.81v.08h0Z"/><path class="cls-35" d="M15.89,33.06v6.83a1.31,1.31,0,0,1-.75,1,4,4,0,0,1-3.63,0,1.34,1.34,0,0,1-.74-1h0V33.06Z"/><path class="cls-12" d="M15.89,32.9a2.08,2.08,0,0,0-1.29-1.7l-.29.45a4.57,4.57,0,0,0-1.05-.11v0L12,31.2s-1.09.92-1.22,1.5h0c-.17.47.06,1,.69,1.35a4,4,0,0,0,3.63,0,1.22,1.22,0,0,0,.74-1.12S15.89,32.92,15.89,32.9Z"/><path class="cls-4" d="M14.33,32.11a2.2,2.2,0,0,1-2,0,.61.61,0,0,1,0-1.15,2.2,2.2,0,0,1,2,0A.61.61,0,0,1,14.33,32.11Z"/><path class="cls-36" d="M14.23,30.37v1a.47.47,0,0,1-.27.35,1.46,1.46,0,0,1-1.32,0,.47.47,0,0,1-.27-.35h0v-1Z"/><path class="cls-28" d="M14,30.74a1.46,1.46,0,0,1-1.32,0,.4.4,0,0,1,0-.76A1.46,1.46,0,0,1,14,30,.4.4,0,0,1,14,30.74Z"/></g><path class="cls-37" d="M26.5,38s-.71,2.18-1.24,2-1.23,0-1.81-2c-.15-.5-.05-2.77,1.67-2.11A1.85,1.85,0,0,1,26.5,38Z"/><path class="cls-3" d="M20.5,40.65a3.56,3.56,0,0,1,.63.57c.23.28.89.18.89.18l.91-.3L24,40l-.77-.17Z"/><path class="cls-3" d="M19.87,40.52a3.78,3.78,0,0,1,.63.56c.23.29.89.18.89.18L22.3,41l.88-.64-.55-.68Z"/><path class="cls-3" d="M19.16,40.14a3.78,3.78,0,0,1,.63.56c.23.29.89.18.89.18l.92-.29.87-.64-.55-.68Z"/><path class="cls-3" d="M30.4,17.36c.53-.55,2-2.53,3.25-.73s.92,4.79.08,7S32.84,28.32,32,30.5,30.22,33.1,28.7,35a46.83,46.83,0,0,1-3.7,4l-2.3-1.39s3.86-2.23,4.39-4.28a10.36,10.36,0,0,1,2.15-4s-.06-5.75,0-6.88C29.41,20.55,29.12,18.7,30.4,17.36Z"/><path class="cls-3" d="M24.75,37.29a1.85,1.85,0,0,0-1.72,0,4.1,4.1,0,0,0-1.63,1.46s1.17,1.87,1.3,2.15,2.88-2.27,2.79-2.45S24.75,37.29,24.75,37.29Z"/><path class="cls-3" d="M24.32,37.12a6.87,6.87,0,0,0-2.23-.21c-.89.14-1.67,1-2.23.74s-.23.62.15.76,1.73-.28,1.86,0S24.32,37.12,24.32,37.12Z"/><path class="cls-3" d="M22,39.3l-.06.05-1.37,1-1.09.53-1.05-.43s.53-.85,1-.68.17,0,.17,0l.74-.5,1.14-.54Z"/><path class="cls-4" d="M32.45,15.21a3.61,3.61,0,0,1,2.17,1.67c1,1.48-.67,11.71-1.86,14.8S25.26,40,25.26,40s1.49-1.88.44-3.17S24,36,24,36s3.28-4.78,4-7.36-.11-6.68,1-9.68S30.74,14.91,32.45,15.21Z"/></g></g></svg>