<svg xmlns="http://www.w3.org/2000/svg" viewBox="0 0 29.55 84.65"><defs><style>.cls-1{fill:#ffccb3;}.cls-2{fill:#eaf6f9;}.cls-3{fill:#709ea8;}.cls-4{fill:#0295ad;}.cls-5{fill:#add4e1;}.cls-6{fill:#9dbdc4;}.cls-7{fill:#d5edf3;}.cls-8{fill:#0aa1c4;}.cls-9{fill:#f0a96d;}.cls-10{fill:#f0caa9;}.cls-11{fill:#702d41;}.cls-12{fill:#ffeae1;}.cls-13{fill:#e5ac7f;}.cls-14{fill:#3baac4;}.cls-15{fill:#0cc;}</style></defs><title>Asset 6</title><g id="Layer_2" data-name="Layer 2"><g id="Layer_1-2" data-name="Layer 1"><path class="cls-1" d="M6.85,20.9s-1.13-.77-3.67,5.34-2.62,6.1-3,8.27S.08,37.1.08,37.1s5.16.33,6.33.2a14.36,14.36,0,0,0,2.87-.8l1.05-2.4a6,6,0,0,1-3.57.65,23.74,23.74,0,0,0-2.89-.44S5.69,29,7.16,27.24,8.56,20.67,6.85,20.9Z"/><path class="cls-2" d="M7.71,20.43a1.89,1.89,0,0,0-2.15.65c-1.16,1.16-3.84,8-3.84,8A2.25,2.25,0,0,0,3,31.17a3.77,3.77,0,0,0,2.41.67c.39,0,5.34-5.76,5-7.28S7.71,20.43,7.71,20.43Z"/><path class="cls-3" d="M23.48,0s-3.63.73-2.64,2.59.85,1.49.48,2.59.47,3.65,1.49,4.23a8.49,8.49,0,0,0,3.51,1.22c1,0,3-1.88,1.88-3.84s-2.13-1.7-2-3.4A2.93,2.93,0,0,0,23.48,0Z"/><path class="cls-4" d="M21.86,84.43s2-2.5.89-2.9a2,2,0,0,0-1.72,0,4.36,4.36,0,0,1-.16-1.18A11.46,11.46,0,0,1,21,78.8a1.42,1.42,0,0,0-1.23-1.56c-1.38-.27-3.34,1.82-3.05,2.68a12.67,12.67,0,0,0,1.92,2.67Z"/><path class="cls-5" d="M17.35,79a5,5,0,0,1,1.34.85c.49.49.89,2.77,1.25,3.13s1.92,1.47,1.92,1.47l-.41.09S13.71,80.14,17.35,79Z"/><path class="cls-6" d="M16.63,79.34a7.7,7.7,0,0,1,1.59,1c.49.49,1,2.32,1.31,2.67s1.92,1.48,1.92,1.48l-3.78-2.19S15.45,80.08,16.63,79.34Z"/><path class="cls-5" d="M21.37,84.18s.6.34,1.11-.66a5.6,5.6,0,0,0,.59-1.59c0-.25.28.4.08,1s-.9,2.14-1.7,1.56S21.37,84.18,21.37,84.18Z"/><path class="cls-7" d="M18.41,25.13s2.11,7.21.23,9.09S17,37.36,16.77,40c-.17,2.14,1.64,5.21,1.64,5.21a7.14,7.14,0,0,1-5,1.92c-3.56,0-9-3.69-9-3.69a35.81,35.81,0,0,1,1-6.65A9.49,9.49,0,0,1,6,35.26c.72-1.47-2.11-9.79-1.17-12.13s2.88-3.2,4-2.7C11.28,21.58,18.41,25.13,18.41,25.13Z"/><path class="cls-5" d="M15.55,74.2a7.84,7.84,0,0,1-1.81,1.29c-2,1.15-.72.08-2,1.52a2.18,2.18,0,0,1-2.37-.35,2.24,2.24,0,0,1-.23-2.46l2.6-1.41a7.13,7.13,0,0,0,1.73.59C13.92,73.38,16.26,72.44,15.55,74.2Z"/><path class="cls-4" d="M15.55,73.66A7.84,7.84,0,0,1,13.74,75c-2,1.15-.72.08-2,1.53a2.2,2.2,0,0,1-2.37-.35,2.25,2.25,0,0,1-.23-2.47l2.6-1.4s-.41.84,1.73,0C13.89,72.08,16.26,71.91,15.55,73.66Z"/><path class="cls-8" d="M9.89,46.64,8.5,41.56l-2-2.46s-3.07,4.44-2.72,7.72,4.08,12.83,3.38,17.4S8.8,74.06,8.8,74.06s3.24,1.58,4.8-2.81c.67-1.88-.64-6.92-.64-10.32S9.89,46.64,9.89,46.64Z"/><path class="cls-9" d="M14.54,20.62A2,2,0,0,0,14.15,22c0,1,1.28,1.76,1.28,1.76s-1.93.92-3,.3-2.8-1.3-2.45-2.7.39-1.66.39-1.66Z"/><path class="cls-8" d="M17,43.94a12.22,12.22,0,0,1-5.15.71,6.8,6.8,0,0,1-2-.54c-.54-.28-.62-.52-.62-.52s-2.53,2.66-2.18,4.89S15.73,62,15.73,62s1.05,5.92,1.05,7.79a60.54,60.54,0,0,0,1.34,7.67,5.76,5.76,0,0,1,2.09.31,6.57,6.57,0,0,1,1,2.14S25.92,70.42,22.92,62C21.66,58.47,19.73,45,17.24,43.59Z"/><path class="cls-10" d="M17.41,16.47a4.21,4.21,0,0,1-.31,3.16c-.26.27.28,1.69-1.32,1.41l-.84-.13a4.05,4.05,0,0,1-1.71-.51,2.51,2.51,0,0,1-.45-.3,5.82,5.82,0,0,1-1-1.31c-1.21-1.93-2.72-5.3-2-6.46.54-.87,2.78-.74,4.65-.47,1.48.22,2.72.54,2.72.54l.14-.07a3.61,3.61,0,0,1,.23,2.38C17.14,16.05,17.1,15,17.41,16.47Z"/><path class="cls-11" d="M17.06,10.68C15.68,9.88,14.26,8,11.3,9A5,5,0,0,0,9,10a5.62,5.62,0,0,0-1.7,3.7,7.77,7.77,0,0,0,2.2,5.47c1.07,1.07.76,1.27.76,1.27s2.69.65,3,.65,1.54-2.42,1.54-2.42S13.91,16,14.19,16s.46.74,1.51.83c0,0,.7-2.73,1.67-3.29S18.45,11.48,17.06,10.68Z"/><path class="cls-12" d="M15.1,15.86s-.27-.86-.67-.67a1.33,1.33,0,0,0-.66,1.31c0,.66.26,1.5.7,1.55s.57.13.85-.18a.9.9,0,0,0,.2-.72Z"/><path class="cls-10" d="M15.27,15.94s-.27-.86-.67-.66a1.31,1.31,0,0,0-.66,1.3c0,.67.26,1.5.7,1.55s.57.13.85-.17a.92.92,0,0,0,.2-.73Z"/><path class="cls-13" d="M14.9,16.1l-.27.52c-.07.17-.16.44-.08.58a1.83,1.83,0,0,0,.14.25,6.14,6.14,0,0,1,.16-.93.91.91,0,0,0,.05-.68c-.09-.2-.15-.46-.35-.26a1.14,1.14,0,0,0-.39.84,1.85,1.85,0,0,0,.23,1.07,1.3,1.3,0,0,0,.4.33,1.07,1.07,0,0,1-.51-.75c0-.48,0-1.2.17-1.31s.18-.13.17.05-.14.43,0,.36.18-.32.24-.21S14.9,16.1,14.9,16.1Z"/><path class="cls-13" d="M14.9,16.88s.11-.37.19-.35.09,0,.13.16,0,.19.15.17.22-.12.1,0-.13,0-.32.07-.15.27-.27.27,0-.26,0-.33Z"/><path class="cls-14" d="M17.59,42.35a.1.1,0,0,1,0,0Z"/><path class="cls-8" d="M17.59,42.35c0,.13.05.58-.87,1.69-1.11,1.34-2.87-1.34-4-2.51s-.78-8-.78-9.16-4.33-3.15-4.33-1.24-1.47,5.8-2.72,8.32a14.52,14.52,0,0,0-1.09,6.1l16.43,5C19.87,49.28,17.73,42.78,17.59,42.35Z"/><path class="cls-8" d="M16.37,23.87A4.31,4.31,0,0,0,13,25.38c-1.85,2-3.46,6.46-3.46,6.46l1.51.53s3.24-6.77,4.12-7.06c2.16-.72,1.77-1,1.77-1Z"/><path class="cls-8" d="M8.78,20.43l1.1.52S8,20.16,8,23.14s1.91,8.33,1.91,8.33l-1.05.37S6.32,23.45,6.77,22A2.28,2.28,0,0,1,8.78,20.43Z"/><path class="cls-1" d="M16.92,27.06s-1.43,2.77,0,3.59,7.69-2.58,9.55-4.44a18.05,18.05,0,0,1,3.08-2.6s-1.07-6.42-2.81-10.14a17.21,17.21,0,0,1-1.34-5l-1.61.8a67.45,67.45,0,0,1,.67,7.26c0,2.65,2,5.63,2,5.63S17.55,25,16.92,27.06Z"/><path class="cls-2" d="M16.28,26.13s-1.34,2.62-.34,4.2,5,1.51,5.56,1.51,3.08-2.95,2.82-5a9.19,9.19,0,0,0-1.19-3.49S17.5,23.91,16.28,26.13Z"/><path class="cls-15" d="M22.47,6.22a2.36,2.36,0,0,1,.36,1l.32.18s-.08-.77-.08-.81l-.42-3.23c0-.19,0-.32.19-.3h0a.52.52,0,0,1,.38.38l.64,2.72-.32-3c0-.19.08-.3.24-.25h0a.56.56,0,0,1,.35.42l.7,3.13h0V4c0-.17.16-.23.32-.13h0a.57.57,0,0,1,.28.47l.2,2.78S26,5.87,26,5.87c0-.17.16-.23.33-.14h0a.55.55,0,0,1,.28.47l-.07,2.17h0c0,.06-.1,1.72-.1,1.72s.75,2.8.65,2.79a1.89,1.89,0,0,1-2.44.86c-.92-.43-.39-4-.39-4s-.42-.2-.49-.25-1.5-1.83-1.5-1.83L21.81,6S22.15,5.76,22.47,6.22Z"/></g></g></svg>