<svg xmlns="http://www.w3.org/2000/svg" xmlns:xlink="http://www.w3.org/1999/xlink" viewBox="0 0 52.57 52.57"><defs><style>.cls-1{fill:none;}.cls-2{clip-path:url(#clip-path);}.cls-3{fill:#69c9ca;}.cls-3,.cls-4,.cls-5,.cls-6,.cls-7{fill-rule:evenodd;}.cls-4{fill:#f2efdc;}.cls-5{fill:#ddd9c8;}.cls-6{fill:#00b0b8;}.cls-7,.cls-8{fill:#07959c;}</style><clipPath id="clip-path" transform="translate(0 0)"><rect class="cls-1" width="52.57" height="52.57"/></clipPath></defs><title>Asset 15</title><g id="Layer_2" data-name="Layer 2"><g id="Layer_1-2" data-name="Layer 1"><g id="Artwork_10" data-name="Artwork 10"><g class="cls-2"><g class="cls-2"><path class="cls-3" d="M26.28,52.57A26.29,26.29,0,1,0,0,26.28,26.34,26.34,0,0,0,26.28,52.57" transform="translate(0 0)"/><path class="cls-4" d="M27.36,25.49l2.57.69c1.12.3,2.11.95,2.11,2.11V39.14a2.11,2.11,0,0,1-2.11,2.1H22.3a2.11,2.11,0,0,1-2.11-2.1V27.58c.09-.28.29-.77.54-1.34L23.67,18h3.45Z" transform="translate(0 0)"/><path class="cls-5" d="M27.36,25.49l2.57.69c1.12.3,2.11.95,2.11,2.11V39.14a2.11,2.11,0,0,1-2.11,2.1H26.12V18h1Z" transform="translate(0 0)"/><path class="cls-6" d="M27.36,25.49l2.57.69c1.12.3,2.11.95,2.11,2.11V39.14a2.11,2.11,0,0,1-2.11,2.1H22.3a2.11,2.11,0,0,1-2.11-2.1V27.58c.09-.28.29-.77.54-1.34l1.49-4.18h5Z" transform="translate(0 0)"/><path class="cls-7" d="M27.36,25.49l2.57.69c1.12.3,2.11.95,2.11,2.11V39.14a2.11,2.11,0,0,1-2.11,2.1H26.12V22.06h1.13Z" transform="translate(0 0)"/><polygon class="cls-6" points="27.58 15.55 27.58 14.42 27.75 12.48 30.5 13.48 31.72 20.32 29.5 16.21 27.71 16.23 27.71 18.31 23.22 18.31 23.22 15.55 27.58 15.55"/><polygon class="cls-7" points="27.58 15.55 27.58 14.42 27.75 12.48 30.5 13.48 31.72 20.32 29.5 16.21 27.71 16.23 27.71 18.31 26.12 18.31 26.12 15.55 27.58 15.55"/><path class="cls-4" d="M23.49,11.33h4.86a1.23,1.23,0,0,1,.47.09l2.56.08v2l-1.78.7v.09a1.26,1.26,0,0,1-1.25,1.25H23.49a1.26,1.26,0,0,1-1.25-1.25V12.58a1.25,1.25,0,0,1,1.25-1.25" transform="translate(0 0)"/><path class="cls-5" d="M26.12,11.33h2.23a1.23,1.23,0,0,1,.47.09l2.56.08v2l-1.78.7v.09a1.26,1.26,0,0,1-1.25,1.25H26.12Z" transform="translate(0 0)"/><rect class="cls-8" x="31.05" y="11.35" width="1.32" height="2.36"/></g></g></g></g></g></svg>